<svg xmlns="http://www.w3.org/2000/svg" version="1" viewBox="0 0 4013 2690"><g fill="none" fill-rule="evenodd"><path fill="#ACACAC" fill-rule="nonzero" d="M2364 1641l-13 14-34 39-32 36-32 36-28 33-35 43-23 28-16 19-5 6-52 52-12 12v222l-1 28v25l-1 1h-280l-7-103-3-61-5-79-3-64-6-100-5-102v-358h327l-1 4v7l2 4v5l-2 6 1 4-1 2 2 7-1 4 2 2 1 12v5l-2 1-1 10 1 2-1 6-2 1h-6v2h7v4l4 1 2 2v6l-2 4 6-1 5 5 1 7 3 3 5-3 2 1 2 4-3 3-2 7 1 4-1 4 1 4-2 3-1 10 2-1 1-4 3-4v-14l-1-4 4-8 1-7h4l8 1 2-2 2 1 3-2 7 2h4v4l3 1 4-4h6l2 6v4l1 7v3l3 9 2 6 1 4 1 4 4 9 2 6 1 1v7l3 11-2 2 3 2 3 9 2 4 3 7v4l2 2 2 6 2 7v6l-2 5-4 10-2 5-3 4-1 5 9-8 9-2 3 3 5-2 7-1 9-5 12-4 21-8h8l7 3h5l3 2 5 1 1 3 3 1 3 2 9 5 4 5h4l3 2 11 3 4 1h4l10 5h3l3 2z"/><path fill="#8A8A8A" d="M1408 1368v867h-185l1-4-4-3-1-3-3-3-7-1v-4h-2l-2-5-4-3-2-3v-4l2-5h-3l-5-3 2-3 3-11-3-7v-5l2-2-1-6-3-3v-6l-2-11-4-4-6-11-5-2-3 1-1 2-5-6 1-2-3-5-8-5-2-2-4-2 1-2 3-1-3-5-6-5-2-3-4-1-6-4v-5l-1-2-4-1-2-4h-2l-3-5v-5l-4-3-1-4-3-2-1-3-4-2-1-5-4-8-3 2-4 6-4-1-5-10v-4l-3-4-3-1-4-5-2-9-3 3-5-1-5 1-3-4-4-1-3-6 3-4 1-3-1-2-7-2-4-4-3 3-1 3h-4l-2 2-2-4v-5l-1-2v-3l-3-2v-3l2-4-3-5-3-2v-4l-4-5-4 1-3-7 1-3-3-4-2-3-4-6-5-4-2 1-1 7-6-4-6-2-3-5-1-6h-4l-7-2-1 2-5-4-4-8-3-1 1-3-1-4 7 1v-3l-3-4-5-2 1-3-3-2-1-6v-512z"/><path fill="#959595" fill-rule="nonzero" d="M1800 2235h-392v-867h363v358l5 102 6 100 3 64 5 79 3 61z"/><g fill="#9D9D9D"><path d="M813 2251h-3l-2-1v-3zm-18-9l3 4-2 1 5 3-3 4h-3l-2-3-1-5zm8 2h-2l-5-5 6 2zm-17-19l-3 1-4-1 1-4zm-103-1h-2l-1-3 4 1zm7 1h-3l-2-4 3-2 3 2zm-12-9l-1 1-6-1v-8l4-1 3 3zm123-5l-2-3 2-2 2 3zm-44-12l5 1 2 2-6 1zm46 2l-1 3-5-2 2-4h2zm-58-3l-4 2v-3zm-4 3h-3l-3-4 1-3zm30-20l-2 2-2 5-2 1-2-3 3-3zm-14 6l3 5 4 4-1 2-8-5-3-1-1-4-7-3-2-2v-4l2 1 3 2 7 3zm-110-12h3l2 7 1 9-2 3-6-3-5-4-1-4 2-3-4-3 10-4zm81-12l-4-7 3-4 3 1 1 7-3 1zm-9 2l-1-1-2-5-4-4-1-7 2-4 6 5v2l-2 4 2 5zm16-15l3 3-4 3-3-5h-1l-2-5 3-3 4 3z"/><path d="M739 2143l3 3v5h-4l-3-3 1-3zm-21-6l7 12-4 4v-4l-2-2-2-4-2-1-6 2v-4h4l1-6zm-14-1l-6 2-2-2 4-2h3z"/><path d="M708 2139l-4 1-2-2 3-3 5-3 2 2zm-17-3l-7-1 2-3 4-1 3 3zm-20-11l-4 2-6 1-6-2 10-2 3-2zm-7-3l-5 2-3-3 8-1zm-30-4h7v3l-7-2-4 1 1-3zm39-6l-2 1-3 5-7-1v2l-7-1 1-3 8-8 6-1zm-20-7l1 2-6 3-5-1-3-3 4-1z"/><path d="M596 2103l14 5 3 2 1 5 4-1 6 4 3 3h4v1l6 2 10 2 6 3 7 2h5l4 1h3l4 1 7 4h6l4 3 7-1 5 2 2 2 4 13 2 1 4 7 2 6 13 14-1 8 5 10h3l4 4 5 2 8 2 7 3h2l4 5 5 1 1 6 5 2 3 5-1 4 9 10 1 4v5l1 2v3h3l3-3 1 4 2 8 2 1 1 4-4 2-3-3-6 8-4 1-6-3-5-1-11-4-12-6v-3h-2l-2 1-8-2-7-5-12-5-5-5 5-5 3-2 1-4 3-1 5-6-2-1-1 4-4 2h-5l-3-1-3 3-7-2-4 4-2 1-6-4-5-6-4-1 1-4 3 1 4-4-2-1-6-6h-3l-3 3-3-3 1-3-3-5 1-4-9 3-2 3-5-4-1-4-3 2 1 3-2 1-3-2 1-8v-4l5-4 5 1 9-1-3-3-6 3-5-2-2-3-4 1-1-2-2-6v-6l-3 2-2-3-4 2h-4v2l-10-1-3-5-1-2 3-7-4-5-1 6-4 2-1-1-3-3-1-3-6 1-2-5-6 7-5-2v-2l6-6-4-4 2-1-3-3-2 1-2-1 2-9 3 1 5-2h7l4-7-5-2h-9l1 1h5l4 2-11 5-7 1-3 2-7-6-2-5h-3l-1-4-2-2-1-7 5-1 5-3h1l4-2 2 1zm51 1l-7 1 5-3zm-41 1l-7-2-1-1 6-2 2 2zm-8-5l-4 1v-3zm-2-41v2l-3 2-3-3-3-2-4-10 3-4 4-3 1 5 3 4v6zm-25-33l-3-2 4-2zm21-10l1 6-2 5-2 5 1 4-1 2-5 1 1-4-1-4-5-1 2-3-1-3 3-6 2-1zm-138-3l2 1-4 3 2 5-5-2-1-6 1-4zm142-5l-3 6h-7l1-4 2-2zm-15 11l-4-6 3-6h3v7zm-3-16v3l-1 5-4-2-2 2-4-2 3-6zm14-4l3 7-1 2-7-1-2-4-2-1 5-4zm27 2l-2 1-3 3-4 2-3 3-3 8v2l-3 2-5 2-1-4 1-6 3-8 3-4h4l7-5 4-6 8-2v4l1 2-3 4zm-59-16l2 1 1 7-2 6-4-2-1-8v-3zm7-9l2 8v4h-3l-6-5-3-1 1-6zm-142-9l4 2 4-3 1 3-1 4-2 1-3-3-2 5-1-5-2-2zm148 26h-2l-2-2 3-5-1-5-1-7 1-7-1-2 3-4 2 6 1 2v8l2 7-2 5zm-31-25l6 6v7l-2 4-2-4-2 1-5-8-5-10 2-5 6 6zm37 7l-2-4v-2l-1-6 5-2v4zm-9-13l-1 1v5l-3-1 1-11 2 2zm-171-14h-5l-2-2h6zm119-8h-5l-2-4h4zm8-4l3 4 2 2 1 4-2 2-3-2-3-6-1-2-3-3 2-3h2z"/><path d="M418 1927l1 4v3l3 1 3 3 2 4h-6l-4-2-1 2 4 2 6 2 1 2-1 4-3 3h-6l-2 1 2 5 2 2-2 4 4 2 2 3-1 2 2 3v3l3 2 6 1-1 2 3 2-1 4 4 2 1-4h4l-3 4-1 6h3l6-2 2 3 1 4h3l-2 4-3-1-3 5-5-2-1-3-3-1-6-10h-2l-2-7-4-5-3-1-6-5-2-6-3-2-6-5-5-7 1-2-3-1-3-5h5l2 2 2-2-2-4-2-2h-5l-3-1h-4l-2-9 4 2h4l3-2h11l4-4 3-2zm144 7l4 10 1 7-1 7-3 17-7 1 1-4v-7l1-7 3-5-4-1v5l-1 1-1 8 1 4-4 2-4-1-6-6-3-9 1-3-3-2-1-7 2-4 3-1v-8l1-1v-7l2-1 5 2 6 6 4 3z"/><path d="M539 1938h-5l-4-2v-7l4-4-2-4 5 1 1 8v2zm10-18l-2 2-3-2-4 2-2-4 4-6v-3l2-4 5 10zm-60-17l7 6 5 2 4 5 1 2 5 10v5l-4-1-1 2-4-1-3-6-3-1v-4l-3-2-3-3-5-1-5-9-4-4v-3l1-3 2 1z"/><path d="M550 1901h-4l-5 6v5h-4l1-7v-7l4-4 3-1h5l2-2-2 8zm-55-1l-3 1h-4l-3-2-4-5 6-5 3-2v4l3 2zm-16-15l-2 3-5-3 2-3z"/><path d="M511 1895l3 6 12 12 1 3 3 3v7l-1 2-2-7-3 3-2-2 1 7-4 1-4-7-6-6-2-2 1-4-4-1 1-5-2-5-5 2-3-6v-4l-4-1v-6l-4-3v-3l4-3 7 5 5 6 4 3zm-23-27l1 4v2l-3 3-2 5h-2l-3-5 2-4-2-1-1 4h-3l-3-3h-3l-1 3 2 3v3l-3-1v-5l2-6 3-2 10-6 2 2zm-124-11l10 3 6-1 3 1 1 6 4-1 2-3 5-1 3 3v3l4 3v5l2 4-1 3-3 1-2 4-6 1-3 3-4 2h-5l3 3 3 1 5-2 1 2 4 2-1-4 5 1 2-3-2-6 4-5 1-4-1-2-1-9 4 1 6-2 9-6 2 4-1 6-3 6-3 5-2 6v4l-3 8 1 4-2 3 2 5v8l-2 6-2 2h-4l-7 2v2h5l-3 3-6-1-3 2-3-1-6-4 1-2-6-3 4-2 2-3-9 2 2-4h9l3 3 2-1-4-3-1-2-5-2-6-2-3-1-4-4 1-3-2-2 2-2-4-4 2-2-3-4-5-3 3-2-4-6 3-8 2-4-3-4 2-4zm126 3l-3-2 2-4 2 2 2 3zm-20 0l-2 1-5-5 2-3 5 5zm-106-5l-4-3 1-2 4 1zm119-5l-4-4 2-2 3 5zm5-2l-4 2v-3l2-3 2 2zm-23-15l1 4h-4l-2-3 4-3zm1-12l-2 6-8 7v-6l2-7 5 1zm13-8l-4 2-3-5 4-3h3l1 3zm11-5v2l-3 4-2-3zm-8 2l-3-5 2-2 7-9 3-5 2 5-1 3-4 7z"/><path d="M1223 2235H829l-6-3v-3h-3l-5 4-2 2-2-4 3-4-6-1v-4l1-3-3-3 10-1-8-4-3 1v-4l1-2v-13l-3 1-8 5 1 5-4 4-10-6h-4l-4-4-5-7v-3l2-4 4-1 5 8 1 8 2-2v-5l-3-5-5-7 2-4v-6l-3-3 1-3 6-2 2-4h-2l-3 3-5 2-1 7 4 4-3 4-3-2-2 2-4 2-10 1-5-2-1-3-5-5-4-3-4-6 3 1 3-2 1-5 1-3 2-4-2-5-3-2 2-5-8 6-6-2-1-2-3 3-1-7 1-4 4-2 1-2 4-3v-8l2-3-4-5 4-5 1-1-1-3-5 6-2 1 1 5 2 1-1 10-5 3-3 5-1 4-4 1-1-3h-3l-4-2-2 2-4 1-1-3 1-4-2-3-4 10-2 1-3-4 1-2-4-1-1 2-5 2h-4l-9-2 3-5-3-2 1-3h5l4-1h4l5-1 6-1 1-4 3-3-2-4 1-1 3-1 2-4v-3l-3-8-2 1 2 7 2 2-2 2-4 3v3l1 2-4 6h-6l-3 2-2-2-3 2-6 1-2-1 5-4-4-4 1-4h-10l-4 3-3-2v-3l3-3 6 1h6l2-1-10-1-4-2-1-3h-2l1 4-2 3-4 2h-4l-5-4-1 2h-6l3 4-3 2-5-3-4-1-3-2-7-2 1-3-5-2 1-8-6 2-6-6-1-4 2-2 6-2 2-1 7 1 2 1 7-1 4-3-2-1-5 3-11-1-7-2h-5v-2l6-2 2-4 3-2 1-3v-5l3-3 7-2 12-1 15 2 2-1 3-4-2-1-3 4-17-3-8 2-3-2-3 3-2-1 1-6-2-1-1 6-4-1-2 1 6 3-3 1-2 5 1 3-2 4-5 1-1-3-2-2v-5l-4-5 1-5-1-6 1-8 4-2h4l1-3 1-7 3-3 4-1 1 4 3-1-3-5 5-4 3-1 4-5 2-1 5 1 4 3v4l2 3 6 6 1-3-6-5-1-5-1-3 1-5-4 2-8-1v-4l-2-3v-5l3-4 4-4 4-1 2-7-2-7-1 4 1 5-4 4-4 3-5 4-1 8-8 3-2 4-8 4-5 3-3 4-1-5-2-3-4-2-2-4-1-4 2-4 6-3-1-1-5 1-3 3-6 13-4 4-3-2 2-2v-4l4-1 1-4-1-8 6-14-1-7-6 3-7-2-2-3-2-7-1-13-5-5h-2l-8-8-1-6v-5l-3-3-1-5 5 1 3-2 1 1 2 4 2 1 9 8 1-4 4-1 2-3 4 3 5-1v-2h-7l-4-1-2 4-4 1-4-3v-2l-4-1-5-7v-4l1-5v-4l1-3 3-1 2-3-2-2 3-6-3-2-2 6-5 4-1 3h-5v4l-6 4-2 4-3 3-1 3v11l-2 5-2-1-12-13-1-1-5-7 1-2-3-2-1-2-3-1-3-5-3-2-5-7 1-2-1-9 3-5 4-1 3-4v-1l-8 4-2 1-3-3h-5v-3l2-1v-6l-2-2-4 2-4-1-1-6 1-3h4l-3-3v-6l4-2 3 6 10 15-1-6-6-7-7-10v-3l4-3 4-2 2-7 2-2-2-3 4-6 2-1 6 1 2-3 4 1 3-1-12-1-2-1 2-7 4-7 2-5 3-2 1-5 2-2-1-4v-4l-3-1-1 4-2 5v7l-2 3-1 6-4 6-3 7h-3l-2-6 4-9 5-6-1-6-1-10-3-4-1-5 1-8-2-4 1-4 3-6 2-4-1-2v-6l-2-7-3-1-4 1-9-3-2-7-2-2-7-2-5-7-3-2-8-1-4-2-22-15h-10l-1-1-1-7-2-5 1-4-11-5 3-15-14-4 5-10-6-12-8-13-17-32-7-11-4-12-9-12-3-8 2-2-3-5-8-8-3-4-5-8-3-4-16-10-4-5-2-6h-2v-7l-4-5-3-1-5-5-2-6-10-2-4-6 1-4-5-4 3-5 1-6-3-5-4-2-4-7-7-4-3-4-20 11-15 4-4 3 4 3v3l-1 3-4 4-5-1v15l-1 3-4 7-2 2h-10l-20 15-7 7-2 1-1-4 1-5-4-19-2-3-45-45-2-5-2-7-2-3-12-6-3-2h866v512l1 6 3 2-1 3 5 2 3 4v3l-7-1 1 4-1 3 3 1 4 8 5 4 1-2 7 2h4l1 6 3 5 6 2 6 4 1-7 2-1 5 4 4 6 2 3 3 4-1 3 3 7 4-1 4 5v4l3 2 3 5-2 4v3l3 2v3l1 2v5l2 4 2-2h4l1-3 3-3 4 4 7 2 1 2-1 3-3 4 3 6 4 1 3 4 5-1 5 1 3-3 2 9 4 5 3 1 3 4v4l5 10 4 1 4-6 3-2 4 8 1 5 4 2 1 3 3 2 1 4 4 3v5l3 5h2l2 4 4 1 1 2v5l6 4 4 1 2 3 6 5 3 5-3 1-1 2 4 2 2 2 8 5 3 5-1 2 5 6 1-2 3-1 5 2 6 11 4 4 2 11v6l3 3 1 6-2 2v5l3 7-3 11-2 3 5 3h3l-2 5v4l2 3 4 3 2 5h2v4l7 1 3 3 1 3 4 3z"/></g><path fill="#898989" d="M923 338v193l2 3 40 33 45 36 45 35 53 42 54 41 45 35 56 42 31 23h82l3 2 18 23 30 37 6 6 10 6 11 4 23 4 94 17 83 15 105 19 10 2 2 1v21l-1 18 1 372H780l-1-2-2-2-5 2-1-2 2-5-2-5-3-4-5-12-1-4v-8l-3-2h-6l-1-7-1-2-5-6-2-4 1-3 4-4 1-2-2-6-2-8-1-3-3 1h-7l-2 3v5l-2 1h-5l-7 1-7 6h-4l-6-4-8-1-5-4-3-1-3 2-1 5h-5l-1-5-5 1v3l-1 4-7 1-5-4-3 2-4 4-6-3-2 2-2-2v-4l-1-2-1-6 2-2-2-6v-5l-3-1-3 2-1-4 3-4v-2l1-4-1-7-2-6v-5l-3-3-1-5-7-5-4 1h-6l-6-3-2-5-3-1-3-2-4-5-2-2-2-3v-4l-3-7-2-2-4 2-1-3-1-4-2-4-4-3v-5l-4-2-3-6h-7l-1 2-2 4-4-1-2-4-5-3-6 3-7-6 3-2-3-7-1-6 2-3 2-2-3-2-1-3 2-3 4-2-1-3-6-2-5-6-5 2v-2l3-2-2-7-4-2-1-5-3-7-3-3v-3l2-2 1-4 2-6 3-4-1-3-6 1-4-3-2-9-4-2-3-6-5-1 1-4 3-3 4-1 2-2 2-9 3-2-3-8-3-2-1-5h-5l-1-3 1-3-2-2-4 4-3-1-2-4 2-2 4-2h3l1-3-2-3-3 1-7-4-3-5-5-5h-3l-6-4-2-4v-4l-4 1v-4l-2-3-1-4 3-4-3-2-1-6-4-1 2-5-2-3-1-2-3-6h-5l-6-4h-1l-1 5-9 5-3-2-5 1v-5l4-6 1-4-2-2-5-2-5-5-4-10h-5l-8-7-7-2-4 1-2-5 1-3 4-1 1-5-1-4v-3l3-1 1-3 4-2-1-4-2-2h-3l-4-2 1-6-3-4-2 2-4 2-2-2 2-2v-4l4-4 4-2v-4l2-5 8-8 2-11 4-4 1-3-2-6-3-3v-3l-4-6-9-8v-3l3-4 7-4v-5l-2-1-4 2-2-1-2-5-4 2-3 4-2 1-2 5-2 2h-4l-2-2 3-6v-5h-9l-7 4-3 1-1 2-3 2-3-2h-5l-1-3 1-7-5-2 2-6 5-4v-3l-1-4 1-5-1-3-2-2-6 1-3-1 3-8v-6l1-2 4 2 1-3-2-5v-4l3-3v-2l-4-2-1-3-3-4 1-2-3-5 2-5 1-4-3-3-1-5-4-5-6-4-1-2 3-3h7l2-2H220l-3-7v-6l1-3-1-5 4-5 1-5 1-3-2-7 1-2-4-4 2-10-1-9-2-4-2-4-6-2-2-9V421l9 3h8l9 4 4 4 1 3 3 3 3 1 5 1 6 10 8-3-5-3-2-7-4-3-2-5-3-2-3-4 1-3-10 2-2-1-6-5 1-3h3l-3-6v-3h3l3 4 4 2h4l-3-9-8-4-1-1-1-15 1-4h2l5 6 1 3 8 7 5 2v-2l-7-3-9-14-1-4v-2l4-3h4l2 6 2 6h1l-2-12 2-2 6 1 4 6 8 4v-3l-2-2-3-15 1-4 5-4 5-2 4 2 4-2 5 2 5-1 5 5h2l3-2v-4l-1-3h-2l-3 5-2-4 1-4h3l1-3 2-4 2-6v-2l-4-9 3 1 2-2 3 1-1 7 5-2 3 7-2 1 1 7 2 3 4-2 2 4 4 3 5-2 1 4-3 5-8 9-3 5v6h-4l-4 8v5l1 2 2-7 3-4 6-1 5-3 2-6 6 1 1-4 3-4 8-2h12l4-4 2-4 2-1 2-4-1-3 2-4-2-3 2-6 3-3h5l-1 3h3l2-2h3l4 3 6-2 2-2v-4l-4 1v-3l-5 3-2-1 2-7 3 1h9l-2 3 9 4 2-6 4-1 3-4h4l3-4 1-5 6-5 8-3 1-7 8 1 2 8 5-1 3-10 1-6v-3l3-6 3-1 5-3 2 4 3-3v-3l5-4v5h3l3-4 4 1v8l3-1 3-3v6l1 1 3-7 2 3 6 1 3-4v-3l3-7-1-1 1-5 4-5 2 2v4l3 4-1 3h3l2 3h2l3 3-1 6-2 3-4 2 3 1-5 5-5 3-2 2-16 12-4 1-4 3-2-2-4 7-3 3-2-1-2 3-1 7-4 2-4 1-3 7-1 3-4 5-3-3-4-5-3-1-3 4h-5v4l-5-2-3 3-7-1-7 3-3 2h-4l-5 7 2 3-2 2-2 4 2 4-1 3-10 6v6l-1 1-2-7-2 1v7l-3 3v-5l-2-3h-3l-3 4h-4v3l-3 2v4l-3 8 1 4-1 6 1 7-2-1v-3l-1-3-7-3-1 3-4 1v12l-2 5-4 5-3-3h-3l2 4-3 2 2 7 5 3 2 2 3 1 2 3 5 3 3-2-6-2-1-2-4-3 2-1-3-4-3-2-2-3 6-3 2 1 4 6 4-2 3 3v-5l1-3 4 2 4 5 3-3 9 4 2-4h2l1-4-5-5-2-2-2 4-3 1-1 4h-4v-3l-3-6 1-2 6 1-3-4-5-3v-6l1-2-1-3 3-3h6l3-4 10-3 1-9 2 2 6-1 1-4 3 1 2-3h3l2-4 2 1 3-5 3-6v-4l-4 3-1-3-2-2 2-2 2 1 3-1h5l-2-2 2-4h2l6 3 2 3-3 4 1 7 2-3 2-11 7-4 1 10-1 3-4 3-2 3 1 2 3-6h3l2-3v-5l1-2-1-6-3-6-1-6 6 10-1 8 2 4 2-8-2-7-4-5v-3l1-3 3-1v6l2 6 1 9 3-2-2-5 3-2v14l-3 7-2 2 2 2 3-7 2 1-1 5-1 5-2 4v4l-2 5 1 8h2l1-9-1-6 4-9 4-3-2-4 4-3 2-1 2-6-4 1 9-11 4-5v-4l3-5 2-7 8-2 10-5h2l9-5 5-4h4l3-2 15-2 3-5 2-7 3-5h2l-1 9-2 2 1 7h-8l-3 2 2 7-1 8 2 3h3l2 2 4-1-3-4 3-4 4-1 2-2 4-5 4-8 8-9 4-2 1-5v-5l-1-2-1-8 1-4 3-1 3-3 4-4 6 1 3-3 5-1 10-3 1-2-14-3-7-3-3-6 1-4 5 3 2-5-1-3-6 4h-5l-1-3v-7l2-6 4-9 5-4 2 3 10 9 12 13 9 13 5 7v4l3 6 3 10 3 6 3 8 3 3 2 6-2 3 4 19 3 5 17 24 1 3 4 2 1 3 9 9 6 4 4-1 5 3 1 2 6 4 4-4-2-4-3-2 14 2 2-5-1-4-7-3-7 3-4 3h-3l6-11 14 3-5-6 1-7-7-2 2-2-2-2 2-7 1-1 5 1 4-5 5-2 3 2 1 8 3-1 1-5v-3l-3-2-7-1-4-2-3 1-2-5 5-7v8h4l2-3v-6l3-2 3-8 9-4h3v-3l-3-3-1 6h-3l-3-2 2-4h-4l-1 3-3-2-6 6v3l-4-1 1-3-1-4 4-5 4-3 2 2 3-1 5-2 2 1 4-2 4 5 3-3 4 3 1-2-4-7-4-1-5 3v-3l-2-2 2-3 5 1 1-2 3 2 5-1 1 2-3 4 2 2 2 3-1 4-2 4-3-1v8h2v4l-3 1 3 4v2l2 2-2 3-2 6v4l-1 3 1 2h3l3 3h3l4-4h6l1 3-1 5-5 5-2 2v5l-2 5-4 3-3 5-1 4 1 4-5 1 4 5 5 2 8 1 3-2 1-3h5l3 1 4-1 5 2 1 1 6-2 7-5-2-2-1-6 4-3 8 1 1-6 1-4-1-8 3-6v-6l-3-6 4-3 3-4 3-2 5 4 3 2 1-4h5l2 2 5 1 6-2 8 1 6-2 18 4 4 3h6l28 19z"/><path fill="#989898" d="M207 421v145l2 9 6 2 2 4 2 4 1 9-2 10 4 4-1 2 2 7-1 3-1 5-4 5 1 5-1 3v6l3 7h106l-2 2h-7l-3 3 1 2 6 4 4 5 1 5 3 3-1 4-2 5 3 5-1 2 3 4 1 3 4 2v2l-3 3v4l2 5-1 3-4-2-1 2v6l-3 8 3 1 6-1 2 2 1 3-1 5 1 4v3l-5 4-2 6 5 2-1 7 1 3h5l3 2 3-2 1-2 3-1 7-4h9v5l-3 6 2 2h4l2-2 2-5 2-1 3-4 4-2 2 5 2 1 4-2 2 1v5l-7 4-3 4v3l9 8 4 6v3l3 3 2 6-1 3-4 4-2 11-8 8-2 5v4l-4 2-4 4v4l-2 2 2 2 4-2 2-2 3 4-1 6 4 2h3l2 2 1 4-4 2-1 3-3 1v3l1 4-1 5-4 1-1 3 2 5 4-1 7 2 8 7h5l4 10 5 5 5 2 2 2-1 4-4 6v5l5-1 3 2 9-5 1-5h1l6 4h5l3 6 1 2 2 3-2 5 4 1 1 6 3 2-3 4 1 4 2 3v4l4-1v4l2 4 6 4h3l5 5 3 5 7 4 3-1 2 3-1 3h-3l-4 2-2 2 2 4 3 1 4-4 2 2-1 3 1 3h5l1 5 3 2 3 8-3 2-2 9-2 2-4 1-3 3-1 4 5 1 3 6 4 2 2 9 4 3 6-1 1 3-3 4-2 6-1 4-2 2v3l3 3 3 7 1 5 4 2 2 7-3 2v2l5-2 5 6 6 2 1 3-4 2-2 3 1 3 3 2-2 2-2 3 1 6 3 7-3 2 7 6 6-3 5 3 2 4 4 1 2-4 1-2h7l3 6 4 2v5l4 3 2 4 1 4 1 3 4-2 2 2 3 7v4l2 3 2 2 4 5 3 2 3 1 2 5 6 3h6l4-1 7 5 1 5 3 3v5l2 6 1 7-1 4v2l-3 4 1 4 3-2 3 1v5l2 6-2 2 1 6 1 2v4l2 2 2-2 6 3 4-4 3-2 5 4 7-1 1-4v-3l5-1 1 5h5l1-5 3-2 3 1 5 4 8 1 6 4h4l7-6 7-1h5l2-1v-5l2-3h7l3-1 1 3 2 8 2 6-1 2-4 4-1 3 2 4 5 6 1 2 1 7h6l3 2v8l1 4 5 12 3 4 2 5-2 5 1 2 5-2 2 2 1 2H88l-5-6v-3l5-18-2-5-23 2-5 2-9 9-4 2-18-9h-2l-4 6-20-7-1-2V325l8 2 8 3 11 2h8l4-3h10l10 4v2l15 4 4 4h6l2 2 4 7 3 5 9 6 5 10 2 5 2-2 5 3 1-3 2-6h1l2 10 4 6 6 5 26 16h4v3l6 2 5 4 6-1 3 1 2 2 2 1 5 4 6 2 3-3 5-2zm3283 1747l9 4 11 2 4 2 10 1 8 3h4l4 2 3 1 4 3 9 3 3 3 4 1 6 8 6 1 3 4 3 1 5 1 4 2h2l3 3 2 5 5 7-6 5-4-1-7 1-4-1-5 1-5-2-7-3h-8l-9-4-10-2-5-3-3-3-6-3-8-2-3-9-5-6-7-5-12-5-5-3-4-3-2 1-4-4 3-2 8-2 3-2z"/><path fill="#989898" d="M3472 1340l-8 1-5 1-1 2v4l4 4h5l2 5-6 1 1 4-5 2h-4l3 7h2l6 3v5h-5l1 4-3 2v4l2 6-5 4-1 2 1 6 5 4 2 6h3l4-2 4-4h3l3 2v2l-6 4v3l-2 3 1 2-1 5 1 2-1 5 1 4 1 5 2 2 3 1 3 3v4l-5 1-10-4-3-3-5 2-2 4 1 3-2 2 3 2 5-2 7 4h4l3 1h4l3 3-1 6 6 2 7-6h7l2-4 3-1 6 3 3 5 2 3-3 3-4 1-8 1-3-1-4 2h-3l-3 4v4l1 4 2 2h2l4-4 3 8-2 4h-5l-3 5-4 2-1 1-2 7-2 4-5 1-1 1-2 8 1 3h3l5 1v7l3 4 3 10 2 3 3-3 3 1 1 5 4 4 2-4 2 6 2-1 1-5h2v5l-2 3-4 3-1 3v9l3 7-6 5-2 8 2 1v-5l4 4-2 5v5l-4 3-2 11 2 4-3 1-4 4 2 4-5 2-1 6 4 5v3l4 4v5l3 4-7 1-6-1v2l2 3-1 5 2 4 7 1 3 3-1 2-4 1-2 7 2 1 5-3v2l3 4 5-1 5 3 6-1-2 3h-3l-6 4-4 1-2 1v4l2 2 1 4 3 1v2l-2 8h3v3l-1 8-3 3 1 3 4 2h6l6 1h2v4l-5 1h-5l-2 4-2 2v2l4 2 5-2v3l-4 2-3 9 2 7-2 6h-2l-6-3h-1l-2 5 1 4-3 4 1 2 4 3 2 5-5 2-2 2-7-1-3-1-3-7-6-4-7-2-5 5-9-1 1-6-4-3-2-3-3-3-7-2-3 2-2 6-4 2-8 1 2 5-5 2-4-2-3 2-6-7-1-6-4-3-5 1-4-4-5-2-8-12-2-1-6-8h-4v-4l-4-3-2 1v3l6 6-2 3-1 6 4 10-3 4 4 6 2 4-2 2h-3l-1 4-9-6-3-2-1-4-4-3-4-5-5-2 2-5-5-2-3 2 1 6 7 13 8 8v4l-3 5h-2l-3 3 2 4-2 3-3-2-4-5-4-2v9l-7 2-4 3v6l3 3 2 6v3l-5 3-2 4-1 5 3 4 6 5 1 5 3 1-2 3v3l7 5 1 5 3 5 10 3 3 1 7 8-4 2-1 2 2 5-1 8-1 1 1 5-7-1-2-3-3-1-3 1-4 4 1 7 2 3-1 4 2 4 6 4 2-3 3-2 1 8 4 3 4 5 5-3-1-4 6-3v-7l1-3 3-1 5-4 1-3 3 3 3 7v5l-4-2-1 2 3 8 2 7-3-2-2 2v4l2 4-1 5 1 2v6l-3-1-2 3 1 5 2 3 2 6 3 1 1-2-1-10h2l3 5 3 2 2 2-1 6 5 2 2-2 2 1 3-2 4 1 4-1-1 6 6-1 2-4 2 5 4 5-1 4 3 6 2-4 4 7 5 2 2-1 4 3 1-3 3-1 4 1 4 3 5 8 2 2 6-5 3-1 2-5v-4l-2-2-1-11 1-3 3 3 1-1-1-4 1-6 4-1-2-7v-6l2-1 1-5v-8l-3-6 2-2v-5l2-4 15-4h3l5-7v6l9 7 1 3-5 1-14 2-7 2-4 5-1 3 2 6 3 3 3 2h5v3l3 5 2 10 1 3-1 1-5-3-1 3 3 3h302v42h-4l-3-3v-3l-9 1-3 3-4 1h-4v-3l-3 1-6 5-4 5-12 3-1-1-3 1-6-2-5 4-3-2-1 5 2 2-5 6-3 1-3 3-5 1-1 5 1 2v8l-2 3h-4l-2-1-3 5-3 1-4 4h-2l-3 5 3 1-1 2h-4l-3 5-10 2-4 5 1 5-5 3-4 1-2 2-3-1 1-3-7 2-4 1-2-1-5 2h-8l-3 2-2-4-5 4-4-2-6 3-3-2-4 1-9 3-3 2-6 2-3-3-3-6-5-1-3 1-8-1-6-3-5 1-2-1h-5l-12-1-5 1-2-2-2 2h-5v2l-4 1-4-1-2 2h-2l-4-3-4 1-3-1-2-3h-12l-5 1-3 2h-4l-5-1-5-3-3 2-4 1h-12l-12-1-2 1-3-3-2 1h-7l-3 2-10 2h-4l-4-3-4 1-2 4h-2l-3 2-4-2-5 2-2-2v-3h-3l-3 4-1 4-5 1-3 6-4 2-4 1-2 2-2 6-2 5h-4l-2 6v5l-2 4-1 11-6 8-1 1h-7l-8 1-4 2h-6l-8 1-3 7 1 3-7 2-2-3-7 5-3 1-2 3-1 7h-6l-5 4-2 2-2 3-4 2-2 8-1 2-4 1-2 3-1 6-5 7-2 4-6 5-4 4-2 2-4-1-4-5-5-4-7 1-3-3-7-4-3 1-9-3-3 1-2-3-4 4v3l4-2h12l9 3 5 5h4l2-1 5 2 3 5 6 2-2 3-1 6-1 1-1 5-3 3-1 6-4 4-4 3-4 5-1 3-1 4-12 4-4 12-5 9-4 3-8 3-10 11-2 4-6 4h-5l-10 4-4 1-5-2-4 4-4 2-7 3-2 6-9 4-7 7-10 2-7 4-1 7-6 2-3 6-4 7-3 2-3 5-3 2-8 2-4 2-5 5-2 4-6 3-5-1-2-2-4 2 10 3 3 2 2 5-2 1-7 1-2 3-7 3-5-6 3-16-7-3-4-3-6 1h-7l-6 3-10 1-4 2-10 5-5 1-4 4h-4l-4-5-4-3-4-1-4 1-3 3h-2l-4-3-8-3-2-1-2-6-1-2-2-3-2-8-3-1-3 1 1 4-2 1-8-3-4-3-3-4v-4l-3-3-5-4-9-4-12-4h-5l-4-1-6-1h-3l-1-2h-4l-12-2-3-5-6-4-3-5-3-6-3-5-3-8-6-7-3-5-4-5v-13l-5-8-1-4 3-7-1-17v-256l-1-7 4-2 5-6 5 3-2 5 1 2h4l3-1 5 7 4 16 1-6 2-4-2-3 4-5-1-7 1-3-6-3v-4l-2-1-2-5h5l3-4-2-8 7-2 1-6 6-3 2-7-1-7 3-5-2-3 1-6-2-4h-3l-4-4v-5h-3v-7l1-2-1-7-4-2-1-2 3-4-1-3-4 1-2-5 4-10v-5l-2-1-1-5 1-3-2-6-4 1-2-5 2-1 3-1 3-1-1-4-4-1 1-6-2-4 3-7-3-1v-5l1-2-1-4 4-2-6-3-1-4 4-5-2-1-6 2-1-1-5-2 1-4-3-1-3-3v-4l-2-5 1-3-2-6v-3l-3-5-5-1h-2l7-6 5-2 7-2 2-2 15-4 4-4 13-6 2-2 7-2 7-5 3-4 7-4 6-4 5-2 4-8h2l18-18 6-7-3-2 6-6 6-10 4-4v-2l5-3 2-5 2-5 2-10 2-3 1-11-1-13 2-16-3-21 1-4-1-5-1-11-3-11-2-2-5-16-1-5-4-8-2-5-2-3-4-8-3-5-5-6-3-1-3-4-3-6-3-1-3-4-5-1-3-3-8-3-4-3 1-3-3-3h-2l-4-4-2-1-3-5-6-1-1-3-3 1-1-5 4-5-3-4 2-1v-4l-1-3-2-7 2-2 3 4 1-3 6-1 2-3-1-5 3-2 4-3-2-4 4-1-1-4 7-5 6-2 1-3-1-4 2-3-1-3-5 3v-2l2-3-1-2 2-3 5-3v-7l-2-1-1-4 4-2 1 2h6l3 3 1-3-4-6h4l2-4 6-1-4-9 1-6 3-5-3-3-3 1-6-1-2-1v-4l3-2h3l-4-4 4-4-5-4-2-1 1-4-2-4-4-2-1-4 2-4 5-3 2-4-6-1-4-3-3-5 10-10-1-2h-4l8-6-16 8 2-4-3-4-5 3-7 1 1-7 3-4 11-13 2-3 2-9 4-3-3-2 1-4-1-2-1-10-1-5 8-1 3-2-5-4 1-5 2-2-5-1-3-5-2-3h-6l-2-2-1-5-3-11v-4l-1-5-1-1-1-12-1-5 1-7-1-6 2-2 1-3 3-4 4-2 7-6 5-1 1-3 5-4 2-4h5v2l7 2h3l2 2 7-1 3 2 7 1 8 5h2l3 2 3 1 4 2 8 2 1 4 7-1 6 4 8 2 3 3-6 2-4 4-1 4 7-6 5-2 3-5 8-2 7 2 3 3h4l6 3 4 5 4-7h13l5-3 1-4 3-1 4 1 2-2 5-3 2-4 3-5 9-1 1 1 4 7 3 1 2 2h3l3 4 5 1 1 5 5 5 1 3 4 1 3 3h3l4-1 6 5-2 4 3 1-1 8-3 2-1 7 3 5 1-2-1-5 1-5 6 2 6 3 5 1 2 2 2 6-2 1v5l2-2 4 1 3 7-1 3-3 4-5-2-1 2 6 1 5-2 2-6-1-4 9 4 5 3 3 3 1 4-3 1-3 2h-5l2 6-4 5 5 1h5l-2 4h-6l5 3v6l4 1-1 3 4 2 2-2 5 8 5-1 2-1 5 4h4l3 1 1 4h4l2 1 2-2 7 5 5-3 1 1 4-3 3-2 4 3 2-1 4 2-2 2v3l3 4-1 4 2 6 3 1 4 4 1-6 3-3 4-2v3h3l1-2-2-4 2-10 2-2h3l4 10 1 5 2 1-1 3 1 5v3l-3 2h-3l-4 3-2 3-3 2 1 4-1 3 2 3-1 2-6 3 3 6-1 3 2 2 1 3-2 4 4 8 3 2-1 11-1 3-4 2-4-2-1 4-3 2-18-2-1 2h-11l-4-2-12-3 3 2 6 2 7 3 4 1 4-2 3 1 5-1 2 2 6 1 4-1 4 1 4-1 3 1-1 5 7 2-2 9 3 1-5 6 6 2 1 3-3 4-5 4-3 6 4 3 1 4-1 2 1 2-5 2 1 4 5-1 8-4h2l3 4 3-1 1 9-5 2-4-3-4 4v5h3l1 2 4-1v2l-3 4-4-2 3 16h-4l-2 8-3 1-2-1-1-6 2-2v-3l-2-1-1-4h-3l-2-5-2 6 4 5v6l-2 1-5 2h-4l-4 5h3l1 2 6-4-1 7 4-1 2 2-4 4 2 3 4-4 2-4h3l1-5 6-3 3-3 2-4 5-2 13-1 4 3 5-4 3 1 4 1 4 3 2 2 4 1 2 4-1 7 3 2-1 5v2l3 2 3 11-1 8-4 9-1 7v2l-6 9-2 1-9 1-6 4-5 1-4 4-4 1-4 3-7 8 11-8 1-2 8-4 8-3 4-2h3l6-2 3-2 1-3 3-4 1-8 2-2 1-8 2-3 1-5v-5l2-4h4l1-5 3 3-1 3 4 1-2 8 1 4 2 3-2 6-8 9v4l4-3 1-4 2-3 6-6-1-3v-6l1-4 3-1 2 3-2 8v4l4 3-3 9 2 2 4-9 1-1 4-4h4l2-3 5-2 3-3 2 2 2-3-1-3 4-1 2-6 3 2v3l3-2 1-3h8l-2-3 2-1v-4l1-3 2-7 4-1v-3l1-7 3-1 4 4 2 1 3 4 3 2 1 3 2 3 5 4-3 7v3l1 6 3-3-3-1 4-6 1-5v-3l-3-2-1-3-3-2-1-4-2-2 2-6 2-1 7 2 2-3-6-1-2-3 6-2-1-5 4-1 5-4 4 1 3-2 4 2h4v-2h-3l-5-3-5 2-1-3-3-4-1-10 8 2 1-2-2-9 4 1 6 7-2-5-2-3 2-4-6-6 1-1 5 2 2-1 8 1v-1l-6-3h-3l-2-2-2-8-2-7-1-2 4-4 2-4 5-3 4 3-1-6 4-2 2-10-1-3h3l2-3-2-2 3-3 2-6 3-2-3-4 3-2 2-2v-5h3l4 3 3-2z"/><path fill="#7C7C7C" d="M3367 2304l-4 2-1 5-5-2-6 2h-5l-2 2-7-4-4-1-1-4h-23v4h-12v25l-7 9-10 4-10 4-4 1 1-8-1-1-7-2-2 1-34 49v3l-2 14-1 2-5 4-4 10 2 5-3 4-1 5 3 3v2l-2 3-5 5v4l-8 5-4 6-2 4v2l3 3-2 2-3-2-3 2v5l-3 4-2-5-4-1-3 3-2 3h-3l-4-2h-2l-2 3-3 8-3 4v2l-144 1h-1l3-1 8-3 3-3v-2l4-3h4l3-3h5l4-2 3-4 5-3 4-3 6 1 3-4-1-4 3-5v-6l2-3 7-7 2-4v-4l3-5 5-1 5-5h4l5-2 3-3v-2l5-3 2-4 5-2 5-2 2-2 2-5 4-2 5-1 2-3 5-3 6 2 19-8 4-2 2-4 8-1 4-3 2 1 4-2 2-2 9-4 6-7 5-6 4-7 5-4 2-7 2-2 4-3 5-5 5-7 6-8v-3l5-7 6-3 3-4 4-4 5-5 4-4 5-4 2-2h4l4-4 5-3 3-4 4-1 7-6 4-1 2-2 5-1 11-7 6-3 2-2 6-1 6-3 8-3 11-5 11-6h4l14-5 8-2h8l9-1 5-1h8l5 1 14 2 7 2 6 4h3l10 8 8 8v5h-4l-10-4 3 4h3l1 3 4 4 2 3 4 3-4 1-2 4 4 3-1 2-4 2-1 3-10 2-5 3-2 1-3 9-6 1-2 2-11 8-4 2h-7l-3-3-8-3-5-1-8-6-4 6-2 1-4-1-4-1-2 3-3-2h-6l-1 3-5 1-1 1z"/><path fill="#AFAFAF" d="M3494 2437l-5 2-4 5-1 3-3-3-4 6-5 3 2-5-4-4v4l-5 5-3 8-6-1-3 2-2 3-9 4-6 3-7 5-3 3-11 5-6 3-4-1-2-4-4-2 6-5-2-2-2 5-4 1 2 3 3 1-3 4-2 2-3-1-1 3-7 4-3-5-3 1-5 4-3 1-8-2 2-3-4-3-3 2-1 4-4-3v-3l-5-1-3 3h-2l-6-8 3-6-4-7 4-3-1-6h-7l-4-3-6-7 2-3-1-3 1-4-1-2-1-71v-3l-2-1-5-6-10-10-5-2-2 1-2 3-7 1-5 3-5 1-6 3-7-4-1-3 4-1 10-4 10-4 7-9v-25h12v-4h23l1 4 4 1 7 4 2-2h5l6-2 5 2 1-5 4-2h5l6-1 2-2 8-3 3 5h2l14 6 6 1 4 4 2 8 3 4 7-1 5-6 4-1 3-2 9-3-2 4h3l7-1 5 3 2 3-3 3-6 8 1 5-2 6-3 4v3l-3 1-4 5-9 7 2 1 4-1 2 3 4-3 4 2 2-1h5l1 7-3 1-2 5 2 7 3 4 4 2-1 8 3 7 2 3v6h5l-2 3 2 3h12l3 2 1 3h3l3-2 4 1 6 3 1 2-6 3-7-1-1 3z"/><g fill="#9D9D9D"><path d="M3484 2447l1-3 4-5 5-2 2-1 4 2 5 6h2l4 2 4-1h7l-1 3 7 3-1 3h6l6-3-2-2 8 2 8 1 4 2 2 3 3 1 3 4 5-5 5-1 9-7 4-3 2-2 2 12 4 3 8 3 2-4 5-1 3 3 4 7 4 2-2 4-5 2-5 2 2 2h14l7 1 1 1-5 6-4-1-8 1-2 4-9 1-3-1v5l-7-1-4 4h-6v3l-7 2h-3l-3 2-4 1-2 4-5-1-1 2-4 2-6 1v4l-2 1-4-2-4 3-5-4-5 4-2 3h-7v3l-7-4 2 4 1 5-1 3h-5l-3 1-4-4-4 2-1-2-1-6 1-4-7 2 1 8-1 3-2-1-1-4-3-2-1 3-3-1v3l-3 3 1 8 3 4-5 1-2 1-6 10-4 1-1 4-3 3h-4l1 4-1 2-3 1-3 4h-2l-2 4-3-2-6 4-4-1-1 7-3 1-2 3h-4l-1-3-5 4h-2l-3-4 1-6-3-3-4-7-2 3v2h-7l-2-9 1-7-3-7 1-4 2-3 1-8 4-6 3-3 5-4v-2h-4l-11 12v-2l8-10 5-3 5-4 2 5h2l5-5-1-1-6 3 1-4 12-8 3-3 7-4 2-2 8-5 7-5 7-3 9-2 4-3 3-3 2 2-3 6v4l3-1 4 2 1-2 4-5 7-2 2-1 4-1 1-2 4-1 12 1 3-4h-6l-3-1h-10l-4 3-2-3h-4l-2-1h-11l-3 3-4-2-5-1-4 1-2 5-7-2h-3l1-5 3-4 9-5v-1l4-4 6-4 2-6z"/><path d="M3655 2370h5l-4 7 4 3h4v4l-2 7-2 2 2 3-3 6-2 7-2 3 3 6-2 2-6 8-4 3-10 2 2 1h6l-3 3v4l-4 1h-3l-1 6-5 3-2 5h4l5-3 5 1 2 4 3-3-1-2 1-3 4-4 10-8-7 2-5 3h-2l-3-3 5-4 2-1 7-5 4-4-2-1-8 7-1-2 7-9 6-5 3-1 1 3 2 3-2 4 2 1 2-4 4-2 9 5 1 5-2 4-1 3 4-1 1 5h-2l-5 4h-7l-1 1 3 4-5 2-2 4-4 1-3 3-5 1-10 4-2-2-6-1h-5l-5 3-4-2-3 2h-3l-5-9-2-12-2-3v-7l3-2 1-5 7-6 5-10 4-4 1-4 2-4-1-2 4-3 4-10 5-3 3-4 3-7 1-2z"/></g><path fill="#858585" d="M3865 2049l2 4-3 4h10l-2-4 3-3 1 2 6-2 4 1-2 6-2 8h-3l-2 6-3-2-6-1-7 1-3-3-3 2v2l4 1v7l4 1 3-2h4l2 3-1 8-3 5-3 7-3 3-3 6-3 5-3-4-1 5 3 1-1 3-5 5-2 7-7 7-2 7-2 3v3l-10 12-2 5 3 1-4 10-4 2 5 3v2l-3 10 5-7v-2l6-9 5-6 3 1 5-11 2-1 2-4 4-3 3 4v6l5-2 3 1 3 3 3 3 2 1 3-3h4l3-3 2 3-2 4-3 1-7 6-4 1-12 7 2 2 6-3 1 3-3 4 2 4-4 3-4 2 1 3 4-4 6-2 8 10 3-6h5l5-2 2 4v4l3 2 1-3-1-2v-3l-3-4h5l3-1 1 5-4 6-1 3 1 6-4 2-1 5 2 2 2-6 8-5 8-1v-4l2-4v8l4-1 3-5 2-4 4-6 5 4v3l-1 2v3h2l2-4 5-1 5 2 1-4 4-2 2 2h3l3 3 9 3 1 3 3 1 2 2h2l2 3-5 8-2 6-10 1 2 3-5 1 4 2-3 2h-3l-3 5-6 1-1 4 6-4 2 1 4-2 4 1-4 2 1 3-3 2v4l2 2 5-3 2-2 2 3-9 7 5 1v3l-4 1-6 4h-4l-3 3 1 2 3-3h4l6-5-1 5h1l4-5 3-4 4 2 1-1 3 4 3-6v-3l2-2 3 1 4 6 4-5 1-3 6-2 2 4-2 5-2 7-4 2-2 3-4-2-3 2-2 5-7 3-4 5-5-2h-5l-2-3-2 4 2 7h9l3 2 1 3-6 13-5 7 5 6 6 6h2v-6l2-1 2-4-1-3 4-9 2-1 4-9 6-3 2 2 3-2 4-6 2-1 2 3-4 5-1 3-4 5v4l-5 8v5l-1 2-3 2v2l3 2v3l3 6 10-9 2-3 3-12 4 2v6l2 1-1 6 3 2-3 5 1 2-2 3-1 3-3 2-3 14-1 2 1 3-1 1v4l-2 7-1 4-4 3-2 5-3 2h-3l-2-5-3 1-3-3-3 5-5 3-3-3v-3l1-4-1-5 1-4 3-2-5-3 6-10-2-2-7 8h-2l-3 5-10 10-2 1-4-2-1-4 2-8 2-4 3-7 4-9 3-2-1-2 4-4-5-2 2-5v-6l-2-1-2-7-2-4-2-2h-3l-2-3-3 10-4 2v3l-4 8-2 2 3 3-3 1-3 4-2-1 6-11-3 2-4 8-4 1-3 2-2-2-3 1-3 5-3 2-2 4 1 2-2 2v4l-2 2-4 3v3l-2 4-6 3h-2l-3-2 1-2-6 2-3 2h-9l-4-2-2-5 5-6 5-3 4 1 9-3 1-3 7-5 2-10 3-3 11-4 4-3-1-4-8 2-4-4-2 1-8-3h-3l-1 4 3 4-1 4-1 2-8 1-1-3-7 3-3-1 4-7-3 1-5 3-7 4-3-2 1-3h4l8-4-2-5 1-2 4-7v-3l1-2-2-1-1 6-5 3-4 3-4 1-4 4-7 2-6-1h-7l1 2-3 1-3 3h-3l-6-4-7 2-3-2h-5l-1-3h-8l-2-1-4 3-4-3-2 2-4-2h-3l-1-2h-5l-2-1-6 3-3-2-5 2h-7l-3 2-6 2-7-1-2 2-7 1-5-1-4-3v-3l1-6-1-1-1-3-3-5v-2l4-1 3-5 3-4 8-4 4-5 3-1 6-7 2-4 6-6 3 2 3-4-5-1-3-3h-5l-6 2h-12l-6 3 1-5 4-4 7-5v5l3 2 2-1 2 2h4l2-3v-8l3-6 3-4 1-5 1-4 2-4 2-6h3v6l6-1 5 2-2-4 2-6 4 1 2-2-8-2-4-3v-7l2-5 8-8h2l3 4h3l-4-6-1-4v-4l4-9 4-8 2-4 5-12 1-4 3-8v-2l3-8 2-3 3-6 5-1-3-2-1-5 7-3 5-3 4-6v-8l3-2v-3l2-4 3-2v-7l4-5 2-3 8-4 5-2 3-2 4-1 2-2 4-2 9-7zm-52-157l-2 3 4-4h4l3-1 3 1 2-2 4 1 7-4 2 2v3l-5 1-4 4 9 3 4-1 4 2 10 2 2 2-1 3-3-2-5-2-2 2 8 5 1 3 8 5 2 3-1 11 4 3-3 3-3 1v3l-4 2-4-1v3l7 1 1 3 2 2 1 7-7 1-4 4 4 5h8l2 5-6 1-2-2-7 5 3 4 8 2h4l-1 3 5 1-1 6-3-2h-3l1 3-11-4 4 4 5 1 10 8h-4v6l1 2-6 7-3 1-1 4-2 2-8 4-4 6h-6l-3 4-8 6h-4l-1 5-4 2-2 5-6 1v4h-6v-42h-302l-3-3 1-3 5 3v-4l-2-10-3-5v-3h-5l-3-2-3-3-2-6 1-3 4-5 7-2 14-2 5-1-1-3-9-7v-6l-5 7h-3l-15 4-2 4v5l-2 2 3 6v8l-1 5-2 1v6l2 7-4 1-1 6 1 4-4-2-1 3 1 11 2 2v4l-2 5-3 1-6 5-2-2-5-8-4-3-4-1-3 1-1 3-4-3-2 1-5-2-4-7-2 4-3-6 1-4-4-5-2-5-2 4-6 1 1-6-4 1-4-1-3 2-2-1-2 2-5-2 1-6-2-2-3-2-3-5h-2l1 10-1 2-3-1-2-6-2-3-1-5 2-3 3 1v-6l-1-2 1-5-2-4v-4l2-2 3 2-2-7-3-8 1-2 4 2v-5l-3-7-3-3-1 3-5 4-3 1-1 3v7l-6 3 1 4-5 3-4-5-4-3-1-8-3 2-2 3-6-4-2-4 1-4-2-3-1-7 4-4 3-1 3 1 2 3 7 1-1-5 2-9-2-5 1-2 4-2-7-8-3-1-10-3-3-5-1-5-7-5v-3l2-3-3-1-1-5-6-5-3-4 1-5 2-4 5-3v-3l-2-6-3-3v-6l4-3 7-2v-9l4 2 4 5 3 2 2-3-2-4 3-3h2l3-5v-4l-8-8-7-13-1-6 3-2 5 2-2 5 5 2 4 5 4 3 1 4 3 2 9 6 1-4h3l2-2-2-4-4-6 3-4-4-10 1-6 2-3-6-6v-3l2-1 4 3v4h4l6 8 2 1 8 12 5 2 4 4 5-1 4 3 1 6 6 7 3-2 4 2 5-2-2-5 8-1 4-2 2-6 3-2 7 2 3 3 2 3 4 3-1 6 9 1 5-5 7 2 6 4 3 7 3 1 7 1 2-2 5-2-2-5-4-3-1-2 3-4-1-4 2-5 7 3h2l2-6-2-7 3-9 4-2v-3l-5 2-4-2 2-4 2-4h5l5-1v-4h-2l-6-1h-6l-4-2-1-3 3-3 1-8v-3h-3l2-8-3-3-1-4-2-2v-4l2-1 4-1 6-4h3l2-3-6 1-5-3-5 1-3-4-5 1-2-1 2-7 4-1 1-2-3-3-7-1-2-4 1-5-2-3 6-1 7-1-3-4v-5l-4-4v-3l-4-5 1-6 5-2-2-4 4-4 3-1-2-4 2-11 4-3v-5l2-5-4-4v5l-2-1 2-8 6-5-3-7v-9l1-3 4-3 2-3v-5h-2l-1 5-2 1-2-6-2 4-4-4-1-5-3-1-3 3-2-3-3-10-3-4v-7l-5-1h-3l-1-3 2-8 6-2 2-4 2-7 5-3 3-5h5l2-4-3-8-4 4h-2l-2-2-1-4v-4l3-4h3l4-2 3 1 8-1 4-1 3-3-2-3-3-5-6-3-3 1-2 4h-7l-7 6-6-2 1-6-3-3h-4l-3-1h-4l-7-4-5 2-3-2 2-2-1-3 2-4 5-2 3 3 10 4 5-1v-4l-3-3-3-1-2-2-1-5-1-4 1-5-1-2 1-5-1-2 2-3v-3l6-4-3-4h-3l-4 4-4 2h-3l-2-6-5-4-1-6 1-2 5-4-2-6v-4l3-2-1-4h5v-5l-6-3h-2l-3-7h4l5-2-1-4 6-1-2-5h-5l-4-4v-4l1-2 5-1 8-1 3 2 2 2-6 6h6l1 4-5 4 2 2-8 2-2 2-6 3 1 3 9-7 7-1 2-5 1 7-2 6 3 2 3-5-2-4 5 1 2 2 1 4-5 1 4 5h2l-1 5-2 7-3 1 3 5 2 3h5l4-1 1 7h3v4l5 2 1 3-2 8h-10l2 3 7 1 2-1 2 4-3 7h2l4-8 6 1-1 8 3-2 2 3-1 3 3-1v4l-2 5-4 1-3 3-6 1-11-2-4 5h6l5-1 4 2 3-2h5l4-3h2l1-3 4 1 5 3 1 3-3 2 3 4-1 4-5 6 5-1 1 3 3-6h4l-1 3 5 3v6l-5 3 1 2 6-1 2 4-4 3v3l-7 3-4 5h-9l1 4-4 6-2 1-5 5 2 1 5-5 8-9 5-1 3 3 3 2 4-4 6-3 4 1 6-1v3l-4 5 2 4-2 8 3 2-1 3-2 3h-7l-12 2 2 3-5 5-1 3-4 1-3 3 8-1 2-3 6-6 2-3 4 1 6-2 2 2 4-4 2 2 2 4 4-2v4l3 1 1 3-4 3-4-1v3l5 2 2-2 4 3 5-3 2 2 1 4-3 6 1 3 5 1 2 6 3 4v4l-7 2-1 4-4 1-4-1-2 2-3 6-8-5 7 7h3l2-1 6-2 5 1 6 3 3 4-2 2-1 6-6 3 6 3 1 3 4-2v3h14l4 3 1 3-1 3 2 5-7 1-4 5-3 4v3l-7 4-4-2-1 2 2 4 2-2 3 1 3 1-4 4 5 2-3 2h-6l-4-2-4-1-4-3h-5l-5-4-6-1 18-6h-12l-3 1-3-2-3 2-1 3 7 4 3 2 3 1 8 5 8 3-14-1 10 3h7l4 2 3-1 2 3v3l-4 2-10-2 1 3-6 3 11 2 1 2 5 5h3l1 3-6 2-3-3-7 1-2-2-2 1 6 7 2-2 6 1 2 1 5-1 3 2 7-2 2 3-2 2 2 2v3l-4 1 1 3 4-1 2 3-6-1 3 6h4l2 1 3-1 3 3-5 4 5 2 6-1h4v-3l-1-3 2-1h4v6l-5 1 3 1 3 2-2 4-4 3 5 1 2-3 2-5 2 8-2 6 2 2 6-14 2 2 5 2-3 3v3l-4 2 2 2 2 4h2v5l-2 4-3 2 2 2 6-2 1-5 3 1-2 6-6 2-3 9-4 3 4 2-4 9 2-1 1-2 4-2 4-5 2-2 3 1 10 1 2-3 4-4 2-1 3 5-3 6-4 4 3 2 2-2h7l5-4v3l3 1-4 6-2 1-3 4-5 3-1 4-2 1-3 4 2 1-2 4h3v-7l8-5 8-10 2 2 2-4 5-10h3l2 2v3l-6 5 1 2 8-6 3-1 1 6-2 5 6 4-5 5 5 1-1 3 4 1 7 2 4 1h3l4 2 2-1 8-1 1 3 2 2h13l4 5 5 3h4l1-2 4 1 2 4 3 1-2 7-2 1h-10l5 3 1 2-7 3-5-1-5 1-13 2-3 5v3h-3l-7 2-4 2-7 4h-7l-6 2-6 1-6 3-6 2-5-1-3 1 3 4 3-2h6l9-3 7-1 9-4h3l7-5 6-1-2 4-3 2-4 5-4 2-7-1-6 6-3 1h-2l-6 2-6 4-3 3-5 1h-5l-7-2-3 1-2 3-9 3 4 4-3 1-1 6 1 4-1 2-6-3-5-3-2-4-5-3-9-2-5-3-6 4 2 1 3-1 9 2 9 4 7 6 5 2 6 4-7 4-4 3-3 1-2 3 8-1 2 2-5 3 5-1 2 2 2-2-1-3 3-1 5-6 3-5v-3l5 1 7-1 4-1 7-7 13-3 2-2-2-7 8-7 2-4 9-2 6-4 9-2 4-1 5-3 14 2-3-2h-4l-3-2-7-1-4 3-6-3 2-5 2-1 3 1 3-3 4 1 4-1 2 2 5 1h4l11 2 3-2 5 5-1 2 4 9 4 4-1 5 4 3 1 3-2 1v4l-8 5-6 2 2 4h4l1 6 2 2 6-5v-5l3-1v-3l-4 2-1-2 2-2z"/><path fill="#707070" d="M3495 2382l-3 3 7 6 5 5-2 6 2 1 1 4h3l1-7 3-1 7 3v2l2 2 3-3 2 1 2 3 3 3 2-2 5 1h6l12-3 7-1h19l6 2-2 2-6 4-7 1-4 3 1 2-3 3h-4l-2-1-1 4 3 1-1 2h4v3l-3 2 2 4-3 1-10 1-3-1-4-4v-4l-3-5-5-2-2-2-4 2 4 2-4 2h-2l-8-3-8-2-3-2-1-3-3-2-1-3-6-3-2 1-7-1 1-2v-6l2-2-7-4h-7l-2-3 2-5 5-5 2-5 8-8 3-1-1 4 2 6z"/><g fill="#8E8E8E"><path d="M2766 2479l-1 4-3 3-3-4 2-2 3 1zm-76-8h-4l3-4h3zm-37-31l-2 2h-4v-3l3-1z"/><path d="M2641 2440v2l2 2 2 2 4-1 2 1 4 3 1-3-4-2 5-4 8-3 1 4 3-1 1 3 3 3 2-6 4-2 2-1 3 3-1 3 3 1 1 2-1 4 2 3 2-7 3-3 2 3-3 4 5-1v4l-9 13-2 1h-3l-1-2 4-5v-3l-8 8h-2l-2-2-3-1-7-6h-6l-3-3-5-1-2-2h-4l-8-1-6-4-7-1v-3l3-3 2 2 3-1 4 1 1-1 6-2zm-22-1l2 3-2 3-3 1-4-5 2-4 4-1zm69-6l-2 3-2 1-3-1 1-3zm-102-16l3-1 6 3 3 3-2 5-2-1-2 6-3-3-1-3-3-3-2-6zm-70-97l-6 3-10-1 1-3 3-2h6l5 2zm-156-33l-4 2-3-2 3-2zm61-35h-3l1-3-2-2 4-1 3 5zm-4-3l-2 2h-4l-4 1-2 3h-2l-1-8 6-3 9 1z"/><path d="M2791 2098v218l1 17-3 7 1 4 5 8v13l4 5 3 5 6 7 3 8 3 5 3 6 3 5 6 4 3 5 12 2h4l1 2h3l6 1 4 1h5l12 4 9 4 5 4 3 3v4l3 4 4 3 8 3 2-1-1-4 3-1 3 1 2 8 2 3 1 2 2 6 2 1 8 3 4 3h2l3-3 4-1 4 1 4 3 4 5h4l4-4 5-1 10-5 4-2 10-1 6-3h7l6-1 4 3 7 3-3 16 5 6-6 5-2 3-5 4-3 2h-7l-12 5-7 4-19 18-4 6h-3l-4 6-3 1-4 1-3 2h-3l-10 6-4 1h-6l-8 4-6 5-4-1 2-3-1-5-6 3-3-1-1 3h4l5-3-3 9h6l4-2v2l-4 2v3l4 2-8 3-1 1h-6l3-4-6 1-2-3-7 1-3-3-1-3-10 2-4 2-17 2-7 1-3 2-5-1-12 4-4-1-6 3-13 12-4-1-2 3-3 2-2 5-3 5-4 5v3l4 2 7 2h6l3 2 7-4h6v5l-1 5 2 2-1 3 5 4-1 4-5 1-1 1-5-2h-11l-2 2-4-1-3 1-3-1-8 2-14 3h-2l-9 9v2h4l2 1 9 1v2l-11-2h-8l-8-2-2-2-9-2h-13l-6 1-8 5-5 5-7 5-3 7-3 2h-6l-14 8-8 9-3-3h-4l-6 3h-4l-9-5 1-11 1-3 6-3 8 2h7l8-2 1-3v-6l-8-1-2-3 3-1 3-5 2-8-1-2 1-6 4-7 10-4 3-2 4-6 5-2 5-4 2-4 1-8v-27l-2-9 5-5 2-8v-2l5-7 4-2 1-4 5-6v-2l-1-4 1-1v-5l-4-6 1-5-4-1-2-4-6-9-5-2 3-4 2 2h14l-1 7 3 3-1 5h3v3l4 1-2 3 7-1v3l-1 5h4l2 3-2 8 8-6 6 1 2 6h3l3 3 6 2 3 1 7 3 4-4 1-10-5-4v-4l3-2 4-1 1 3 2 1v2l7 1v-4h-2l-1-4-1-4-5-1v-4h-3l-3-4 3-5-3-4-3-1 4-6-1-4-3-1-3 2 1 2-6-1v-3l-4-4v-5l-2-3-3 2-1-5-2-2-1-2-2-2v-3l-2-5h-2l-1-5-2 1-5-2h-8l-4 1v-3l-4 1-9-2-3-1-3 1-1-2 3-3v-2l-5-2-2 4-1-2-14-1-4-1h-3l-3-2h-4l-3-2h-3l-3 1-6 1-2-2h-10l-3 1-11-2-12-3h-3l-2-2h-4l-8-2-2-1h-6l-2-1-3-6 2-6-4-1-5 3-2-2-6 3-5-4 2-4 5-6 1-2-3-2-3 1v-6l4-1h3l2-3-4-4h-6l-3 2-1-2-5-3v-4l3-4-1-2 7-11-3-4h-2l-1-4-4-4-5-2-2-3-3-3 1-7 4-5-1-5 4-4-1-3-3-1-16 1-6 2-6 1-9-2-5-2-4-6-3-2-3-5-5-12v-4l-2-2-2-11-3-3-3-6-2-4-5 3-3-1v-3l-5-1-5 3-4-1-5-1-3 1h-8l-8-5-4 1-1-3-3 1-2-2-5-1-7-2-3-4h-5l-2 2-5-2 1 6v1l2 3 4 3 1 7-5 7h-4l-1 2-4 2-2-1-2 6-3 3-1-4 2-4 2-2 7-8 1-4-2-6-4-1-4 5-1 10-3 1v7l-3 2-2 7-3 3-3-3 1-7 4-5-2-1-16 6-2 3-2 5 2 2-3 6v3l-3 6-5 2-7 7-9-1-5 2-3-2-4-6-5-2-16 3-3-2-5 2-4-1-2-9h-4l-7 4-9 7h-4l-3 2-3-1h-4v-2l-5-1v-3l-3-4h-4l-5-2-3-2-1-6h-10l-2 2 1 4-4 2-4-7v-5l-3-3h-8v-3l3-1-1-2-10-3-4-3-13-1-9 3-2 3-12 2-2-2-1-5-2-1-16-1-4-4-8 1-5-2-4-4-1-2v-7l-5-18v-8l-2-2-6-3h-5l-3-1 1-28v-222l12-12 52-52 5-6 16-19 23-28 35-43 28-33 32-36 32-36 34-39 13-14h2l3 2-1 2 6 4 3 6 7 3 4 5 5 4 14 8 2 4 4 6 11 19 6 6h5l3 5 11 2h4l1 2h4l2 2 5 1 6 4 10 5 3 2 17 6 11 6 4 4 7 9 8 4 5 1 1 5-3 1-3 4-3 6-3 3v4l9-14 2-2 4-2h5l15 4h3l6-3 9-1 7 2 7-4 7 3h3l5 1 4 2 12 2 2 2 7-4 5 2 1 4 4 2h3l3-2 5 2 2-2 3 2 3 5 4-3 3 2-2 4 1 5v2l1 6h2v4l-3 9-2 11-3 7-2 8-1 1 1 4v7l2 6 6 7 5 19-1 6-2 5-1 5 1 9 2 5 2 9v2l-4 3-2 1-2 9-1 10 3 4 6 3 6 6 3 9 4 3 5 8 7 6-1 3 1 5-1 2-6 3-2 3h11l2 1 4 7 1 2 4 1 5 4 3-1 5 3 3 7 6 5 9 10v2l3 11 4 4v9l-7 3-3 3-3 5-6 3-3 5-2 1 2 4 3-7 7-3 4-4 4-5 6-4 9 3h4l2 2 3 1 3 4 8 6 2 4 6 6z"/><path d="M2717 1930l2 1 7 8 1 2 3 3 4 6 5 13 1 2-4 4-2-2-11-2-5-4-6-3-9-1-14-6-8-3-5-3 6-10 3-2h4l8-3h5l3-1z"/></g><g fill="#707070"><path d="M2522 788l2-3 3-1 6 3 1 4 1 4-1 3 4 7 2 3-3 4-9 4 4 6 2 1 4 3 4 5-1 6 4 10v5h4l2-3 2-5v-7l5-9 3-6 6 3v5l4 4h3l6 5-3 6 6 8 2 1h4l2 2 3 1 4-1 2 2h8l7 3 2 6v4l2 3 3 5 1 2 10 3 2 3 3 1 4 7 4 4h4l3 3 6-2h3l4 4 3 1-1 3h4l3 4 10 13 3 2 1 3-1 4 1 9-1 4 3 7 4 4 2 3-2 7-6 3-4 1-3 2-4 6 2 2 4-2h4l6-2 9-1 4-4 3-1 3 3 8 3 4 4 3-2-3-6 4-6 5 5 3 6 4 1 4 4-1 4 2 1-6 4 12 3 4 4h4l1 4-1 2-12 3-2 4-4 5-8 6-3 5-4 1v4l-4 3-5-1-5-4-10-5-4-3-5 1-4-6-4-2-2 1-6-3-3-3-10 1-3 3-6-3v-3l-3-3 2-5 5-3 2-3v-5l-2-2-6-5h-9l-5-2-5 1-6 2-2-2v-3l4-6 3-5v-5l-2-3h-3l-3 2-3 5-3-2-2 1-4 2-2-1-4 1-3 7-3 3 3 9-2 6 3 5-2 5-4-1-3 1-5 6-1 2-4 3-3 5-2 1-3-2h-5l-1 3-4 5v2l-2 5v2l-2 7-1 2-3 6-5 1-1 3-11 8-6 4-8 3h-11l-3-5-3-7-1-17 2-9-1-7 2-4-1-7-4-2v-8l-4 6-7 2-12 5h-4l-9-2-8 1-3 6-3 3-3 1-9 1-5-4-1-3-1-4 2-8 10-17 3-3 13-7 2-2 3-1 7-5h4l3-3v-4l-1-4-5-5 1-4-3-4-1-7 2-4-3-3 1-4v-7l-2-6 4-6 4-16 4-2-2-7 2-2v-3l-3-5 1-8 3-4v-11l-1-10 2-9-1-1 1-7 1-7 1-8 2-2v-7l4-11 10-11 5-5 6-2 1 5-2 5 1 4zm-540-465l2-3 3 2 5 6 1 6 2 2 7 9 2 2 2-1 4 5 5 1 3 3 6 6 4 3 5 5 2 7-2 4-1 6-1 3 2 5-1 6 1 4h4l-2-6 1-5-1-5 4-7 1-1 2 6 3 6 1 6-3 5 2 5 4 4 1 3v8h3l4 3 1 4h4l8-8h4l4 6-3 7-4 5-3 2-4 8-2-1 1-6-2-3-6 3h-4l1 4-2 2-1 5 1 3-2 1-4-2h-1l-4 7-4 1-6 10-1 2-9 2-5-2-4-1-8-6h-2l-4-4-3-4h-3l3 6-3 2-8-1-3-3-3 2-5-3-4-5-2-2-2-4-4-1-7-5h-3l-2 3-5-5-3-3v-4l1-7-5-4-3 1 2 7-2 5-4 1-3-6-3-1-3 2-7-6v-5l2-3v-4l-6-3-2 2v4l-3-2-2 2 3 5-4 2-2 2-5-4-6-3-3-10-5-6v-3l5-10 3-2h3l2-3 5 3 3-1 6 1 4-5h5l4-4 1-6 2-6 4 3 3-4 3 1 2-2-1-5-2-3-5-4-2-4 2-6 5 3 1-2-5-3-2-3-1-4 3-4h4l4 2 3 6 1 3 4 4 4 2v4l5-3-7-7-4-8-2-3-4-2 2-5v-8l2-7 3-6 5-3 4-8 4-2 4 4 5 1 1 2 1 5 3 2 7 2 1 5 5 4-2 2h-4l-1 2 3 8 2 2z"/><path d="M1770 1368V957l-12-3-105-19-83-15-94-17-22-4-12-3-10-7-6-6-30-37-18-23-7-2h-78l-31-23-56-42-45-35-54-41-53-42-45-35-45-36-40-33-2-196 18 19 6 3 7 5h10l14 5 9 1 18 6 9 4 9 12 12 6 8 7 9 4 7 1 14 5 10 7 9-3 4 3 18 3 6-2 6 6 11 3-6-6-10-11 2-5 17 7 5-2-7-7 7 1 4 3 9 3 6 3 7 3 5 5 6-1 7 7 3 7 10 5 4 4 3 10 8 4 6 10 1 6-1 6 4-5 4 4-3 4-4 8 1 6h-8l-6 2-5-4-8 2-10-1 4 9-5 4-17-4 3 6-2 6-2 6 6 4-16 8-2 5 6 3 9 6 9 4 9-3 9 5 9 4 7 2h12l6 4h8l16-2 6 1 7 3 9-1 19 1 2-7 9 1 7-2 2 6 5-8 15 5v-6l5 4 3-6 3-5 7-1-3 5 9 3 9-6 3-5 8-3 7-8 6-2 5-4 9 4-1 10 3 6-1-6 6 1 2 5 4 3-3 4 2 7 8 4 1-5 10 1h10l3 5 2 12 2 5-5 5 1 5 6 4 2 6 3-6 1-21 6-4 1 6 3 8v14l2 5 2-10 8 6 12 12 5 13v14l-7-4-7 4-10-4-5-3-3-6 1 6 1 5 8 6 7 4 5 7-2 7 7 3 3 6-1 7 5-3 3 6 4 6 2 8 4 5 5 7 3 4 4 8v-9l-7-8-5-9-3-8-2-5-5-4 4-4-1-12-3-8 1-7 5 5-1-12 6 6 2 11-10-4 4 8 2 5h6l-2-5 4-4-2-5 10 7 4 9-1-6-5-13-6-6 7-5 2-5-10-4-5-6-3-12-3-7-3-5 5-4 1-6-5-8-5-6-8-9-1-5 1-5 2-9 12-7-5-5-6-6 2-11h6l-3 4-1 6 6-4 6-3 7 3 7-4 3-5 10 1 10 1 1-5-3-8 5-3 3 5-1-6 8 6 1 5 5-5-6-5 1-5-1-7 5-3 4-4 7 2 3-4 4-3 10 1 2-9-3-5 3-8-5-2-6-3-5 2-21 12-2 7v6l3 4-1 10-6-6-3-4-6 2h-7l-6 8-6 4-11-6-9-3-6 1-2 8 5 4 2 4 5 3h-10l-4 4-10-3-4 3-7 5-2-5 5-7-6 2 2-10-7-1-6 3-5-2 3-4 7-12 8-20 3-5 25-6 8-3 6-1 9-2 6-6 11-6 5-3 6 1 5-5 5-2 8-5 13 1 8 2 15 20v5l-2 4 3 7 2 8 4 7-9 3v5l7-1 1 5 12 13 3-6 6-2 2 7-4 5 5-3 9 2v5l-2 8 3 6 5 7 8-3 4 3 11-2 5 3 9-5h6v-6l4-6 5 7-2 4 1 7 5 6 8 5h6l2 5 3 5 18 8 5 3 4 3 5-6 5 3 4-4 1 5 4 3 7 3 6 2 4-7 8 2 1-6 7 3h6l2-7 9-6 6 2 6-1h13l4 3 6 1 6 1 6-2 6 1 3 4 6 2 5 4h7l10-3h6l4-7 12 3-3-10-5-2-7-7-1-14 8-3 2 5 13 15 6 19 6 2 2 5 6 2 2 4 7 6 8-1 4-5 12-3-6-7 4-5-2-8-3-7-5 3-6-7-5-5-3-4-7 3-7 7-5 6v5l-5-5-2-7-4-5-5-5-2-6-4-6 1-6 4 6 5-6-7-6-5-9-6-10 8 4 4-4-4-6 5 5 5 3 3 4 7-4 9 1v-6l5 3v-5l-5-5-5-6 1-5h6l7 1 3 10 3-7h7l7 5 7 9 5 5-1 7-2 4 6 3 11-6 1 10 4-6 5-6-1 10-7 10-2 6-5 3 2 6 5-5 6 3-1-6 7-11 4-3 13-7-1 8-2 5 2 4-2 10-2 8-2 12-2 4v7l1 5-2 4 2 7-5-6-2 10-6 7v5l5 3 2 5 5 2 6-2-2 7-2 5-4 11 5 2 6-3 2-4 11-10 2 5 3-6 4 3-3 7-10 12 7-1 6-2 2 8 5 5-1 7 2 9-6 2-6 1-2-4-5 3-8-5-7 5-5-3-2-8-6-5v11l4 3 2 5 4 3 2 7 12 9 3 10v6l4-4-4-9-7-10-7-12 8-2 7 2 9 2 5-2 5 4 6-9-4-4-2-9v-9l4-6v-6l4-3-6-5-3-12-1-5 3-4-1-7-4-4-1-5-6-5-5-3 1-6 6-6 1-5v-11l3-4 2-5-1-6 8-1 8-2 2 5 8 2 6-3 2-6 6-7 10-10 6-3-1-7 1-5 4-6 8-7 8-4 5-3 5-4-5-8-1-13 2-9 2-4-3-8 1-8-6-2-6-5 4-6-6 5-1 10-4 4-1 8 8-1-4 6-6 7h-8l-5 4-7-4-2-9 2-5-1-9 6-1 4-10 6-2 4-3v-9l-8-2 2-10v-6l2-8 13-3 7-1 2-5 6-4 1 5-4 6-6 5-3 8 3 5v5l2-5 7-7 8-11-7-3 4-8 1-6-9-5-4 3-5 6-5 2-7 1-8-3-3-5-7-11-1-8-3-6-6 2 2 7-4 5-7-1-3-5-7-3-11-5-8-7-3-6-6 6-7-7-8-10v-12l-6-2-10-16-2-6-1-5-1-8v-10l2-8 4-6 4-5v-5l4-8 6-5 6 3 6 3-5-4-4-5v-5l4-5 3-4-10 7-3 4-9-8-2-7-6-5-2-7v-5l4-10 2-13 3-6-7-8 5-7 1-12-1-6 6 1 2-7 3-6 4-4h6l4 3 3 6 8 9 6-1-3-9 5-4-3-5 1-5 3-4-7-1-9-3-2-4-2-5 3-7 5-2 2-4 4-4 5-4h8l4-16 7-2h10l7 2 4-5-7 4-16-3h-6l-1-6 2-4 30-11 4 7 2 7-2 8-8 5 1 8 5-7 7 2-2 7v10l6-8 2-7 5 3 3-4 3 4 8-2 5 6-5 12 8 11 4 3 6 3 2 4 5 3 4 13 6 3 2 8 2 13 3 5 1 6v5l-1 5-1 12v12l2 6-7 1 3 5 6 1 6 5 3 12 9 2 5 6-1 6 4-6 4 7-5 4 2 5 2 5 2 5 6 15v6l7-3-3-5 8-2 2 5v12l6 4 2 5-8 4h-16l-4-6-6-8-7 9-2 10-1 6 8-6 9 1 5 4 3 5-7 6-6 8-2 5-5 4-5 3-3 5-5 2-9 9 11-1-5 4-6-2 9 5 3-4 6-1 4 3 9 5-6-1 3 5 7 6 6 3 4 3 10-6 3-4 4-10 11 3 5 3-10 8-8 3 9 1 7-5 4 6h6l4 3h6l1-5 13 5 3 7-8 2-7-4 3 4-7 8-1 11-6 3v-6l-6 4 3-6-8 3 3 7 12 12 4 5 3 8 3 6 3 6 2 4 4 4v5l-1 8-1 9-1 5-3 5 4 5-2 4 1 8-4 4 4 6 8 4 1 5 1 7v5l7-3-1-6 4-4 3-4v-7l6-6 1-7-5-10 2-5 5-7 2 8 3-14v-7l-2-4v-15l1-6 7-9 7-11v-5l3-5 6-3 8 1 4 4 1 6 3 7 6 7 12 11 10 8 10 15 3 10 1 8-1 7 3 9v5l2 8 2 13-2 9-5 7-3-5-8-4 1-11-7 7-4 3 3 6 3 13-3 6-2 5 1 7 3 17 3 7 3 5 1 7 4 6 9 8 2 5 5 4 2 6 4 5 4 3 1 11 4 4-6 6v6l4-5 5 9 3-13h6l2-6 3-4-3-7 5 3 3-9 9 4 6 3 1-12 2-7 1-8-1-9 5-19 2-4 4-6 6-8 10-11v-16l3-6v-5l1-8 5-8 2-6-3-7v-16l3-11 6-1 5-5 3 5 6 1-1-5 5 2 8-2 7 4v-10h-9l-7-3-1-5 6 1-1-6-4-4h9l7 1-7-6 5-3h14l-5-2-5-3v-5l-6 1-11-6 5-5-7-1-2 5-2-8-8-8-3-7 7-1-4-3-2-9 3-4-5-2 1-5 1-6v-9l-3-5 5-5v-6l-3-4 8-3-2-4-10-1 11-3 8 8 5 2 7-5 2-6 4 3 20-3 4 3 10 10 10 4 6 3 8 3 6 1 5-4 11 4 5-2 10 2 12 4 8 1-8 3-9-4 3 6-3 4 6 9-35-7 45 18-6 1 4 6 7 6-4 3-2 5h12l12-2 5 2 7 6 7 2 1 7 2 6-9 3-4 8-6 1-2 6-7 2-5 4 14-1 5 5 2 4 2-4 6 1 6 11-2 17-4 4-5 4-7 7-6-1-3 7-6 4-5-8-7-4 2 6-4 3-9-3-5-5 3 9-6 2 6 3 7 7-7 4 3 4h8l-1 8-3 6 7 6 4-3 3-8 1 10-3 6-4 11 4 11 6 5 3 6 6 8 5 7 9 7 10 20-3 7-2 14-1 11-2 6v5l-4 4v5l-6 1-4 4-5-3-6 2-4 7-2 7-3 8v9l-10-2-4 6-4 7-2 5h-12l-7 3-1 6-10 11-5 5-9-2-3-4v-8l-2-5-8-3-2-5-5-5v-7l2-6 3-5v-8l-3 6-4 4-2 6-8-1v-6l-6-3 7-3-6-4-1-7-6-6 5 2-17-8-5-3 3 5 6 2-13 4-10 5v6l4 4 7-3 5-10 7 2 6 3 2 6-5 3 7 2 7 3-4 6 5 6 8-1-2 9 5 10 5 5 3 5 2 13 4 7 3 7-5 4 1-5h-8l-6-5-3-6h-7l-4-4-2-4-8 3 4 6 5 7 2 4-5 3-5-5-8-2-3-4-7 1-6-4-5 3-2-11-1-5-1-8-2-5-2-5-15 5h-7l-11 2-6-2-4-3-2 4-5-4-5 5-5-3 5 10-7-1 7 15 7 3h6l18 10 4 5-5 7v7l-4 4-6 2-1 5-7 3-5 6-1 5 1 8-4 7-7 4-5 8-7 2-2 6-4 6-2 5-5 3-5 4-25-1-6-3-6-5-6-9-4-4-6-6-13-7h11l5 2-12-5-5-3-11-3-3-5-8-8-5-3-4-3-5-3-6-2-9-1 9 7 2 5-8-2-6-3-9 3-9-2 10-3h-8l-30-4h-6l-6-3-8 3 17 11 5 3-4-9 6-2 20 4 10 4 9 3 7 3 5 4 5 3 6 9 5 3 2 7 2 6 7 5 5 8 4 6h8l12 1 22 4 9-1 8 2 6-2 11 2 15 4 3 6 2 4-3 4 1 5-6 6v6l-6 7-3 9-3 5-7 4 1 7-3 8-9 5-4 9-1 8-6 9-2 4 4 5-7 6-8 2-11 9-5 2-4 4-7-4-12-5-2-5-4-3 3 4 2 6 4 5h-9l-4-6-7-3-1 5-4-4-8-5 4-4-1-8-3 5-10 4 5 3-1 5 5 4 1 7-8 3-5-4-3-4 2 6 1 6 6 7v5l-7-1v9l-2 4-4 5-8-1-4-7-8 2h6l-4 7-12 3-6-4-8-2-7-4-5-7-8 1-1-6-9 4-5-4 5-3-7 6-12-3-9-5-11-3-2-4-6-1-6-2-5-4-6-2-8-5-3-4-4-5-3-4 1 7 6 7-10 4 3 4 2 7 5 3 7 1-3-9 2-5 9 7 5 3 9 4 6 1 6 5 5-4 4 3 2 5h6l6 3-3 5-3 5-5 2-7 3 3 4 5-2h6l1-6 6-4 11-7 8 4 1 7 10 8 2 5 9-1 11 6 6 7 5 3-3 4 2 11 1 6 2 6-5 8-4 5-9-2-7 6-6 6-6 5-9-3-8-1-7-2-5-3v6l-6-1-9-1 3 10 4 4 14 4 2 7-3 5-8-1-1-7-4 5-6 2-8-4 1 5 2 4-2 4-8-2 1 9 4 6 1 8 2 6-3-4-4-6-7-4-10-1 4 3 10 6-2 6-4-3-4 3-6 4 8 1-2 5-7 4-7 1 4 6h-7l1 6-7-4-4 8 9 6 4 4-7-1v7l-11 7-3 4-5 5-5 6 3 6 4 3-4 6-7-3 2 5-2 14 2 5-6 4-4 12-5 4-2 9v5l-4 6-1 6-6 7 1 10-1 6-3 6 1 6-1 9-4 9z"/></g><g fill="#FFC013" stroke="#FFBE00" stroke-width="20" transform="translate(405 1454)"><circle cx="788" cy="300" r="10"/><circle cx="848" cy="445" r="10"/><circle cx="712" cy="441" r="10"/><circle cx="662" cy="455" r="10"/><circle cx="581" cy="496" r="10"/><circle cx="541" cy="461" r="10"/><circle cx="822" cy="629" r="10"/><circle cx="743" cy="739" r="10"/><circle cx="740" cy="692" r="10"/><circle cx="690" cy="609" r="10"/><circle cx="632" cy="632" r="10"/><circle cx="652" cy="686" r="10"/><circle cx="657" cy="755" r="10"/><circle cx="695" cy="712" r="10"/><circle cx="596" cy="761" r="10"/><circle cx="565" cy="739" r="10"/><circle cx="586" cy="682" r="10"/><circle cx="586" cy="649" r="10"/><circle cx="538" cy="654" r="10"/><circle cx="548" cy="619" r="10"/><circle cx="551" cy="580" r="10"/><circle cx="493" cy="583" r="10"/><circle cx="455" cy="543" r="10"/><circle cx="493" cy="649" r="10"/><circle cx="461" cy="654" r="10"/><circle cx="423" cy="682" r="10"/><circle cx="515" cy="692" r="10"/><circle cx="528" cy="739" r="10"/><circle cx="488" cy="745" r="10"/><circle cx="465" cy="759" r="10"/><circle cx="423" cy="761" r="10"/><circle cx="381" cy="735" r="10"/><circle cx="308" cy="702" r="10"/><circle cx="278" cy="722" r="10"/><circle cx="240" cy="705" r="10"/><circle cx="230" cy="664" r="10"/><circle cx="334" cy="755" r="10"/><circle cx="366" cy="781" r="10"/><circle cx="399" cy="807" r="10"/><circle cx="712" cy="761" r="10"/><circle cx="770" cy="759" r="10"/><circle cx="710" cy="290" r="10"/><circle cx="675" cy="230" r="10"/><circle cx="606" cy="317" r="10"/><circle cx="538" cy="270" r="10"/><circle cx="513" cy="230" r="10"/><circle cx="433" cy="10" r="10"/><circle cx="478" cy="276" r="10"/><circle cx="203" cy="310" r="10"/><circle cx="161" cy="366" r="10"/><circle cx="81" cy="383" r="10"/><circle cx="10" cy="473" r="10"/><circle cx="156" cy="409" r="10"/><circle cx="223" cy="346" r="10"/><circle cx="248" cy="376" r="10"/><circle cx="426" cy="411" r="10"/><circle cx="438" cy="483" r="10"/><circle cx="312" cy="523" r="10"/><circle cx="205" cy="493" r="10"/><circle cx="188" cy="549" r="10"/><circle cx="368" cy="405" r="10"/><circle cx="332" cy="403" r="10"/><circle cx="288" cy="391" r="10"/><circle cx="2662" cy="1008" r="10"/><circle cx="1592" cy="712" r="10"/><circle cx="2402" cy="1119" r="10"/></g></g></svg>