<svg xmlns="http://www.w3.org/2000/svg" xmlns:xlink="http://www.w3.org/1999/xlink" viewBox="0 0 44 51">
  <defs>
    <path id="b" d="M27.7 4.3A7.7 7.7 0 0 0 22 2c-2.2 0-4 .8-5.7 2.3A7.7 7.7 0 0 0 14 10c0 1.1.2 2 .5 2.8l5.7 12c.2.4.4.7.7.9a2 2 0 0 0 2.9-.8l5.7-12.1a8.3 8.3 0 0 0-1.8-8.5zm-2.9 8.5c-.8.8-1.7 1.2-2.8 1.2-1.1 0-2-.4-2.8-1.2A3.9 3.9 0 0 1 18 10c0-1.1.4-2 1.2-2.8C20 6.4 20.9 6 22 6c1.1 0 2 .4 2.8 1.2.8.8 1.2 1.7 1.2 2.8 0 1.1-.4 2-1.2 2.8z"/>
    <filter id="a" width="437.5%" height="325%" x="-168.8%" y="-62.5%" filterUnits="objectBoundingBox">
      <feOffset dy="12" in="SourceAlpha" result="shadowOffsetOuter1"/>
      <feGaussianBlur in="shadowOffsetOuter1" result="shadowBlurOuter1" stdDeviation="7"/>
      <feColorMatrix in="shadowBlurOuter1" values="0 0 0 0 0 0 0 0 0 0 0 0 0 0 0 0 0 0 0.39209692 0"/>
    </filter>
  </defs>
  <g fill="none" fill-rule="evenodd">
    <use fill="#000" filter="url(#a)" xlink:href="#b"/>
    <use fill="#FFF" xlink:href="#b"/>
  </g>
</svg>
