<svg xmlns="http://www.w3.org/2000/svg" viewBox="0 0 100 100"><path d="M91.5 44.4c-.4-.4-.9-.7-1.5-.9l-.3-.1-.3-.1-5.6-1.4 4.3-4.3c2.8-2.8 3.7-6.5 2.3-9.9-1.6-3.9-5.9-6.3-11.1-6.3H50.1a4 4 0 0 0-2.9 1.2l-34 34-.5.5-.2.2a15.6 15.6 0 0 0-4.1 10.4c0 8.5 6.9 15.5 15.5 15.5h32.9a4 4 0 0 0 2.9-1.2l31.9-31.9a4 4 0 0 0 1.2-2.9c-.1-1-.5-2-1.3-2.8zm-6.6.9L55 75.2H23.8c-4 0-7.3-3.3-7.3-7.3s3.3-7.3 7.3-7.3h24.8c1.2 0 2.1.9 2.1 2.1s-.9 2.1-2.1 2.1H25.2c-2.2 0-4.1 1.8-4.1 4.1s1.8 4.1 4.1 4.1h23.4a10 10 0 0 0 7.2-3l25.5-25.5 3.6.8zM49.3 24.8c.2-.2.5-.3.8-.3h29.2c4 0 7.2 1.7 8.3 4.5.9 2.2.3 4.7-1.6 6.6l-27.1 27c0-5.6-4.5-10.2-10.1-10.2h-25l-2.3.2 27.8-27.8zm40.1 23.3L57.5 80c-.2.2-.5.3-.8.3H23.8a12.5 12.5 0 0 1-9.1-21l.5-.5c2.2-2.1 5.2-3.4 8.5-3.4h24.9c3.9 0 7.2 3.3 7.2 7.2a7.2 7.2 0 0 1-7.2 7.2H25.2c-.6 0-1.1-.5-1.1-1.1 0-.6.5-1.1 1.1-1.1h23.4c2.8 0 5.1-2.3 5.1-5.1s-2.3-5.1-5.1-5.1H23.8a10.3 10.3 0 1 0 0 20.6h32.5l31.6-31.6a1 1 0 0 1 1.5 0c.2.2.3.5.3.8 0 .4-.1.7-.3.9z"/></svg>