<svg xmlns="http://www.w3.org/2000/svg" viewBox="0 0 496 512"><path d="M248 8a248 248 0 1 0 0 496 248 248 0 0 0 0-496zm24 376v16a16 16 0 0 1-16 16h-16a16 16 0 0 1-16-16v-16.2a88.8 88.8 0 0 1-46.4-15.1 16 16 0 0 1-2.3-25.2l12-11.3a16.2 16.2 0 0 1 19.7-1.6 38.9 38.9 0 0 0 19.9 5.4h45c11.3 0 20.5-10.5 20.5-23.4 0-10.6-6.3-19.9-15.2-22.7L205 268c-29-8.8-49.2-37-49.2-68.6 0-39.3 30.6-71.3 68.2-71.4v-16a16 16 0 0 1 16-16h16a16 16 0 0 1 16 16v16.2c16.5.6 32.6 5.8 46.4 15.1a16 16 0 0 1 2.3 25.2l-12 11.3a16.2 16.2 0 0 1-19.7 1.6 38.9 38.9 0 0 0-19.9-5.4h-45c-11.3 0-20.5 10.5-20.5 23.4 0 10.6 6.3 19.9 15.2 22.7l72 21.9c29 8.8 49.2 37 49.2 68.6a69.8 69.8 0 0 1-68 71.4z"/></svg>