<svg xmlns="http://www.w3.org/2000/svg" viewBox="0 0 512 512"><path d="M274.8 12.6L300.4 75a18 18 0 0 0 26 8.5l57.4-35.4a20.3 20.3 0 0 1 30.5 22l-16 65.6a18 18 0 0 0 16.1 22.2l67.2 5a20.3 20.3 0 0 1 11.7 35.8l-51.5 43.6a18 18 0 0 0 0 27.4l51.5 43.6a20.3 20.3 0 0 1-11.7 35.8l-67.2 5a18 18 0 0 0-16.2 22.2l16 65.5a20.3 20.3 0 0 1-30.4 22.1l-57.3-35.4a18 18 0 0 0-26.1 8.5l-25.6 62.4a20.3 20.3 0 0 1-37.6 0L211.6 437a18 18 0 0 0-26-8.5l-57.4 35.4a20.3 20.3 0 0 1-30.5-22l16-65.6a18 18 0 0 0-16.1-22.2l-67.2-5a20.3 20.3 0 0 1-11.7-35.8l51.5-43.6a18 18 0 0 0 0-27.4l-51.5-43.6A20.3 20.3 0 0 1 30.4 163l67.2-5a18 18 0 0 0 16.2-22.2l-16-65.5A20.3 20.3 0 0 1 128.1 48l57.3 35.4a18 18 0 0 0 26.1-8.5l25.6-62.4a20.3 20.3 0 0 1 37.6 0zM392 256c0-75-61-136-136-136s-136 61-136 136 61 136 136 136 136-61 136-136zm-32 0a104.1 104.1 0 0 1-208 0 104.1 104.1 0 0 1 208 0z"/></svg>