<svg xmlns="http://www.w3.org/2000/svg" viewBox="0 0 509.76 357.12"><defs><style>.cls-1{fill:#17245d;}.cls-2{fill:#e2221e;}</style></defs><title>Canswe-CMYK</title><g id="Leaf"><rect class="cls-1" x="196.65" y="213.06" width="12.61" height="63.79"/><path class="cls-1" d="M213,213.06v13h10.85a7.88,7.88,0,0,1,7.88,7.88h0v42.93h12.43V228.46a15.35,15.35,0,0,0-15.41-15.41Z"/><path class="cls-1" d="M277.85,213.06h14.94c-4.74,1.7-5.94,5.37-6.18,9.11a9.3,9.3,0,0,0,2.37,6.29c2.39,2.82,4.83,2.5,13.54,7.24,1.74,1,10.88,5.91,13.07,15.17,1.78,7.53-1.4,16.1-7.63,21.18a24.73,24.73,0,0,1-14.55,4.81c-16,0-23.11-10.05-23.11-24.12l13.54-.11c0,3.49.75,8.29,3.89,10.5a10.76,10.76,0,0,0,11.52.12,9.62,9.62,0,0,0,3.73-10c-.78-3.38-3.41-5.24-7-7.77-3.18-2.25-4-1.93-9.68-5.18-4-2.25-6-3.42-7.83-5.33a15.78,15.78,0,0,1-4.62-8.18,15.15,15.15,0,0,1,.92-8.24A16.88,16.88,0,0,1,277.85,213.06Z"/><path class="cls-1" d="M329.85,213.06H343.4a319.65,319.65,0,0,0,14.05,42A19.05,19.05,0,0,0,368,265.48s-2.78,6.87-9.79,9.3c0,0-7.56,1.88-12.39-12.63C340.78,247.08,329.85,213.06,329.85,213.06Z"/><path class="cls-1" d="M380.2,213.06h13.66l-24.59,49.28s-8.74-4.69-7.34-11.23S380.2,213.06,380.2,213.06Z"/><rect class="cls-1" x="385.16" y="238.62" width="49.72" height="12.26"/><path class="cls-1" d="M434.88,263.66v13.21H397.83a13.21,13.21,0,0,1-13.21-13.21h50.26Z"/><path class="cls-1" d="M307.78,213.06h13.59a324.06,324.06,0,0,0,14.14,42.34A19,19,0,0,0,346,265.78s-2.79,6.87-9.79,9.3c0,0-7.57,1.88-12.4-12.63C318.84,247.38,307.78,213.06,307.78,213.06Z"/><polygon class="cls-1" points="399.16 213.06 434.88 213.06 434.88 224.35 393.21 224.35 399.16 213.06"/><path class="cls-1" d="M170.06,215.38a39.94,39.94,0,0,0-14,9,64,64,0,0,0-9.49,12.35c-2.6,4.24-4.82,8.47-7.06,12.46a77.91,77.91,0,0,1-7.06,10.93,33.06,33.06,0,0,1-4.07,4.26,24.16,24.16,0,0,1-4.6,3.08,27,27,0,0,1-22,.23,25.77,25.77,0,0,1-14.27-16.86,26.39,26.39,0,0,1-.38-11.36A25.65,25.65,0,0,1,91.65,229a26,26,0,0,1,8.61-7.48,26,26,0,0,1,22.28-1.05,26.23,26.23,0,0,1,9.35,6.66v0a5.6,5.6,0,0,0,8.38-7.44,37.37,37.37,0,0,0-64.69,17.48,37.38,37.38,0,0,0,8,31.32A37.49,37.49,0,0,0,113,282.09a40.46,40.46,0,0,0,8.2-.87,35.11,35.11,0,0,0,8.06-2.77,35.65,35.65,0,0,0,7.11-4.67,44.87,44.87,0,0,0,5.71-5.84,90.4,90.4,0,0,0,8.33-12.6c2.38-4.18,4.56-8.24,6.9-12a51.71,51.71,0,0,1,7.65-9.88,26.7,26.7,0,0,1,9.55-6.08,17.48,17.48,0,0,1,4.44-.75l-.16,18.28H160.58A11.44,11.44,0,0,0,172,256.35h6.77v20.49h13V213.06C183.4,213.06,176.4,213.06,170.06,215.38Z"/><path class="cls-2" d="M258.89,75l-19.6,38c-2.22,4.13-6.21,3.75-10.19,1.44l-14.19-7.63,10.58,58.35c2.22,10.66-4.91,10.66-8.44,6.05l-24.76-28.81-4,14.63a4.79,4.79,0,0,1-5.56,3.46l-31.31-6.84,8.23,31.08c1.76,6.91,3.13,9.77-1.78,11.6l-11.16,5.45H371.1l-11.16-5.45c-4.91-1.83-3.54-4.69-1.78-11.6l8.22-31.08-31.31,6.84a4.81,4.81,0,0,1-5.56-3.46l-4-14.63-24.76,28.81c-3.52,4.61-10.65,4.61-8.43-6.05l10.58-58.35-14.19,7.63c-4,2.31-8,2.69-10.19-1.44Z"/><rect class="cls-2" x="253.8" y="213.06" width="10.19" height="34.32"/></g></svg>
