<?xml version="1.0" encoding="UTF-8"?>
<svg width="34px" height="21px" viewBox="0 0 34 21" version="1.1" xmlns="http://www.w3.org/2000/svg" xmlns:xlink="http://www.w3.org/1999/xlink">
    <!-- Generator: Sketch 49 (51002) - http://www.bohemiancoding.com/sketch -->
    <title>Shape</title>
    <desc>Created with Sketch.</desc>
    <defs></defs>
    <g id="Page-1" stroke="none" stroke-width="1" fill="none" fill-rule="evenodd">
        <path d="M33.1921598,2.39510293 L31.5558549,0.791105778 C30.9885454,0.263789418 30.3264165,0 29.5702716,0 C28.7988593,0 28.1442302,0.263789418 27.6058486,0.791105778 L17,11.1844089 L6.39415138,0.791368255 C5.85576984,0.264051895 5.20114073,0.000262477033 4.42999622,0.000262477033 C3.67358354,0.000262477033 3.01145459,0.264051895 2.44414508,0.791368255 L0.829268293,2.39536541 C0.276422764,2.93685553 0,3.58569875 0,4.34137013 C0,5.11121527 0.276690616,5.75270914 0.829268293,6.26585174 L15.0358448,20.1873711 C15.5597624,20.7291237 16.2141237,21 17,21 C17.7711445,21 18.4330056,20.7291237 18.9855833,20.1873711 L33.1921598,6.26585174 C33.7305414,5.7382729 34,5.09677903 34,4.34137013 C34,3.59987251 33.7305414,2.95129176 33.1921598,2.39510293 L33.1921598,2.39510293 Z" id="Shape" fill="#FFFFFF"></path>
    </g>
</svg>