<svg viewBox="0 0 50 50" xmlns="http://www.w3.org/2000/svg"><path d="M36.85 4c.35-1.06.71-2.13 1.06-3.2.43.45 1.3 1.33 1.73 1.77.44-.58 1.31-1.76 1.75-2.34.55 2.41 2.27 2.71 4.38 2-.19.65-.56 1.94-.74 2.58.82-.02 2.46-.07 3.28-.09-.54.63-1.63 1.89-2.17 2.52.74.45 2.21 1.35 2.95 1.8-.62.21-1.86.64-2.48.86.25.62.74 1.87.99 2.5-.6 0-1.8-.01-2.39-.01-.02.68-.05 2.04-.06 2.72-.7.01-2.1.04-2.81.05.01.69.01 2.06.01 2.74-.68.02-2.06.05-2.75.06 0 .69-.01 2.06-.02 2.75-.68.01-2.05.04-2.73.05-.01.67-.04 2.03-.05 2.71-.66-.01-1.98-.01-2.64-.01-.02.75-.06 2.27-.08 3.02-1.48-.4-2.96-.82-4.43-1.26 4.2-4.35 8.5-8.59 12.79-12.86 1.34-1.39 3.02-3.15 2.23-5.26-.62-2.6-4.26-3.62-6.15-1.73-5.06 4.55-9.58 9.68-14.62 14.26-.48-1.62-.63-3.29-.56-4.98.63.09 1.89.25 2.51.33.12-.75.34-2.24.45-2.98.58.07 1.72.21 2.3.28.12-.8.38-2.4.5-3.2.56.12 1.67.37 2.22.49.15-.82.43-2.45.57-3.26.55.13 1.65.39 2.2.53.19-1.09.39-2.18.58-3.27.54.11 1.64.33 2.18.43zM3.92 19.06c.56-3.54 5.8-4.84 7.81-1.78 2.94 4.16 6.1 8.23 8.5 12.73-.54 1.93-2.56 1.66-3.29.06-2.88-3.66-4.97-7.91-8.05-11.42-4.04-.14-.61 4.18.4 5.89.56.19 1.66.55 2.22.74 1.61 2.42 3 5.05 5.07 7.14 2.17 2.15 6.23-.5 5.2-3.36-1.54-3.4-4.08-6.23-6.09-9.35 1.04-1.04 2.09-2.09 3.13-3.14 3.87 4.03 8.07 7.76 11.78 11.94 1.49 1.37.7 3.37-.58 4.53-3.65 3.82-7.51 7.45-11.2 11.23-3.93-4.12-8.25-7.88-11.97-12.19-1.43-1.51.1-3.33.78-4.79-1.5-2.55-4.24-5.02-3.71-8.23zM0 40.38c.79-2.92 2.92-5.13 4.92-7.28.88.88 1.76 1.75 2.64 2.64-1.32 1.67-3.16 3.13-3.7 5.28-.45 2.67 2.44 5.19 5 4.23 1.75-.92 3.15-2.33 4.65-3.57.88.88 1.76 1.77 2.64 2.65-2.59 2.28-5.31 5.44-9.16 4.87-3.44-.17-5.81-3-6.99-5.97v-2.85z"/></svg>