<svg xmlns="http://www.w3.org/2000/svg" viewBox="0 0 88 80"><g fill-rule="evenodd"><path d="M34.8 0h18.3c1 0 2 1 2 2v6.1a32 32 0 0 1 20.7 16c2 3.7 3.5 7.7 4.2 11.9h6c1 0 2 1 2 2v8c0 1-1 2-2 2H2c-1 0-2-1-2-2v-8c0-1 1-2 2-2h6c.8-4.2 2.2-8.2 4.3-11.9A32 32 0 0 1 33 8V2a2 2 0 0 1 1.8-2z"/><path fill-rule="nonzero" d="M11.8 51H76c1 0 2 1 2 2v3h5c1 0 2 1 2 2v8c0 1-1 2-2 2h-5v1l-.2 1-5 9c-.4.6-1 1-1.8 1H53a2 2 0 0 1-1.6-.8l-6-8c-.2-.3-.4-.6-.4-1l-.8-6.2h-.4l-.8 6.2-.4 1-6 8a2 2 0 0 1-1.6.8H17a2 2 0 0 1-1.7-1l-5-9c-.3-.3-.3-.7-.3-1v-1H5c-1 0-2-1-2-2v-8a2 2 0 0 1 1.8-2H10v-3a2 2 0 0 1 1.8-2zM7 60v4h3v-4H7zm71 0v4h3v-4h-3zm-58.2 1c-1.4.1-2.2 2-1.5 3l4 6a2 2 0 0 0 2.9.8 2 2 0 0 0 .5-3l-4-6a2 2 0 0 0-2-.8h.1zm6.1-3c-1.4 0-2.4 1.9-1.6 3l6 10a2 2 0 0 0 2.7.7 2 2 0 0 0 .7-2.7l-6-10a2 2 0 0 0-1.8-1z"/></g></svg>