<svg xmlns="http://www.w3.org/2000/svg" viewBox="0 0 448 512"><path d="M444.8 301.6a24.1 24.1 0 0 0 2.7-17 23.8 23.8 0 0 0-28.2-18.4l-87.4 25L264 256l67.9-35.2 87.4 25a24 24 0 0 0 9.9-47l-47.5-7 53-31a24.1 24.1 0 0 0 8.8-32.8 23.6 23.6 0 0 0-32.5-8.8l-53 31 17.6-45.1a24 24 0 0 0-15.3-30.3 23.7 23.7 0 0 0-30 15.4l-22.2 89-60.3 35.2V144l65.1-64a24 24 0 0 0-1.7-33.8c-9.8-9-24.8-8.1-33.6 1.7l-29.8 38V24c0-13.3-10.7-24-23.8-24s-23.8 10.7-23.8 24v62l-29.8-38a23.6 23.6 0 0 0-33.6-1.8 24.2 24.2 0 0 0-1.7 33.9l65.1 63.9v70.4L140 179.2l-22.3-89a23.7 23.7 0 0 0-30-15.4 24 24 0 0 0-15.2 30.3l17.7 45L37 119.3c-11.4-6.6-26-2.7-32.5 8.8s-2.6 26.2 8.7 32.8l53.1 31-47.5 7a24 24 0 0 0 9.9 47l87.4-25L184 256l-67.9 35.2-87.4-25a24 24 0 0 0-9.9 47l47.5 7-53 31C1.8 357.8-2 372.5 4.4 384s21.1 15.4 32.5 8.8l53-31L72.5 407a24.2 24.2 0 0 0 2 19.5 23.7 23.7 0 0 0 43.2-4.6l22.3-89 60.3-35.2V368l-65.1 64a24 24 0 0 0 1.7 33.8c9.8 9 24.8 8.1 33.6-1.7l29.8-38V488c0 13.3 10.7 24 23.8 24s23.8-10.7 23.8-24v-62l29.8 38a23.6 23.6 0 0 0 17.7 8 23.5 23.5 0 0 0 15.9-6.2c9.7-8.8 10.5-24 1.7-33.9L247.8 368v-70.4l60.3 35.2 22.3 89a23.7 23.7 0 0 0 30 15.4 24 24 0 0 0 15.2-30.3l-17.7-45 53.1 30.9c11.4 6.6 26 2.7 32.5-8.8s2.6-26.2-8.7-32.8l-53.1-31 47.5-7a23.7 23.7 0 0 0 15.6-11.6z"/></svg>