<svg xmlns="http://www.w3.org/2000/svg" viewBox="0 0 361 208">
  <path d="M122.7 138h12.6v63.8h-12.7v-63.7zm16.3 0h15.8a15.3 15.3 0 0 1 15.4 15.5v48.4h-12.5v-43c0-4.3-3.5-7.8-7.8-7.8H139v-13zm64.8 0h15c-4.8 1.8-6 5.4-6.2 9.2 0 2.3.8 4.5 2.4 6.3 2.4 2.8 4.8 2.5 13.5 7.2 1.8 1 10.9 6 13 15.2A21.8 21.8 0 0 1 234 197a24.7 24.7 0 0 1-14.6 4.8c-16 0-23.1-10-23.1-24.2h13.5c0 3.4.8 8.2 4 10.4 3.4 2.3 8 2.3 11.4.2a9.6 9.6 0 0 0 3.8-10c-.8-3.4-3.4-5.3-7-7.8-3.2-2.3-4-2-9.7-5.2-4-2.3-6-3.4-7.8-5.3-2.4-2.2-4-5-4.7-8.2-.4-2.8-.1-5.6 1-8.3a16 16 0 0 1 3-5.4zm52 0h13.6c3.7 14.4 8.4 28.4 14 42a19 19 0 0 0 10.6 10.5s-2.8 6.8-9.8 9.3c0 0-7.6 1.9-12.4-12.7l-16-49zm50.4 0h13.7l-24.6 49.3s-8.8-4.7-7.4-11.2c1.4-6.5 18.3-38 18.3-38zm5 25.6h49.7V176h-49.7v-12.3zm49.7 25V202h-37c-7.4 0-13.3-6-13.3-13.2H361zm-127.1-50.5h13.6a324 324 0 0 0 14.1 42.3 19 19 0 0 0 10.5 10.4s-2.8 6.8-9.8 9.3c0 0-7.6 1.9-12.4-12.7-5-15-16-49.3-16-49.3zm91.4 0h35.7v11.3h-41.7l6-11.3zM96 140.4c6.3-2.3 13.3-2.3 21.7-2.3v63.7h-13v-20.5H98c-6.3 0-11.4-5-11.4-11.4h18.2l.2-18.3c-1.6 0-3 .3-4.5.8a26.7 26.7 0 0 0-9.5 6c-3 3-5.5 6.3-7.7 10-2.3 3.7-4.5 7.8-6.9 12a90.4 90.4 0 0 1-8.3 12.5 35.7 35.7 0 0 1-29 14.2 37.5 37.5 0 1 1 27.2-62.4 5.6 5.6 0 1 1-8.4 7.4 26.2 26.2 0 0 0-31.6-5.6 26 26 0 0 0-12.8 29.3 25.8 25.8 0 0 0 40.9 13.6 33 33 0 0 0 4-4.3 78 78 0 0 0 7.1-11l7-12.4a64 64 0 0 1 9.6-12.3c4-4 8.7-7 14-9zm83.7-2.3H190v34.3h-10.2V138z" class="text"/>
  <path d="M184.9 0l-19.6 38c-2.2 4.1-6.2 3.8-10.2 1.4l-14.2-7.6 10.6 58.4c2.2 10.6-5 10.6-8.4 6l-24.8-28.8-4 14.6c-.7 2.5-3 4-5.6 3.5l-31.3-6.8 8.3 31c1.7 7 3 9.8-1.8 11.6l-11.2 5.5h224.4l-11.2-5.5c-4.9-1.8-3.5-4.7-1.7-11.6l8.2-31-31.3 6.8c-2.5.5-5-1-5.6-3.5l-4-14.6-24.8 28.8c-3.5 4.6-10.6 4.6-8.4-6L229 31.8l-14.2 7.6c-4 2.4-8 2.7-10.2-1.4L185 0z" class="leaf"/>
</svg>
