<?xml version="1.0" standalone="no"?>
<!DOCTYPE svg PUBLIC "-//W3C//DTD SVG 20010904//EN"
 "http://www.w3.org/TR/2001/REC-SVG-20010904/DTD/svg10.dtd">
<svg version="1.0" xmlns="http://www.w3.org/2000/svg"
 width="415.000000pt" height="415.000000pt" viewBox="0 0 415.000000 415.000000"
 preserveAspectRatio="xMidYMid meet">
<metadata>
Created by potrace 1.11, written by Peter Selinger 2001-2013
</metadata>
<g transform="translate(0.000000,415.000000) scale(0.100000,-0.100000)"
fill="#000000" stroke="none">
<path d="M220 4140 c-83 -23 -156 -86 -193 -169 -21 -45 -21 -60 -22 -968 0
-508 1 -923 1 -923 1 0 62 -14 135 -30 73 -17 145 -33 161 -35 15 -3 56 -11
92 -19 72 -15 109 -5 134 35 11 18 66 195 77 250 2 9 9 34 15 56 l13 41 39
-46 c21 -26 49 -58 62 -72 12 -14 47 -54 77 -90 30 -35 64 -75 76 -89 12 -14
86 -100 165 -192 176 -206 217 -231 279 -170 25 25 29 37 29 83 0 29 -9 103
-21 163 -17 96 -47 265 -64 360 -3 17 -14 75 -24 130 -11 55 -22 116 -25 135
-3 19 -8 46 -11 60 -3 14 -8 41 -11 60 -3 19 -11 67 -19 105 -14 73 -24 130
-32 180 -3 17 -10 58 -17 92 -14 63 -9 70 29 43 10 -8 223 -120 287 -153 54
-27 109 -32 146 -13 35 18 46 37 207 351 149 290 267 519 270 523 1 1 30 -53
65 -120 35 -68 108 -208 162 -313 54 -104 123 -240 154 -300 62 -121 87 -146
148 -152 44 -5 61 3 320 142 85 46 107 54 103 39 -6 -19 -12 -53 -22 -109 -3
-16 -7 -41 -10 -55 -9 -45 -25 -134 -30 -175 -4 -22 -8 -48 -11 -57 -3 -10 -7
-28 -9 -40 -33 -190 -83 -474 -90 -508 -3 -14 -8 -38 -10 -55 -9 -50 -35 -189
-40 -215 -3 -14 -8 -52 -11 -86 -10 -97 31 -153 101 -140 37 7 77 42 151 131
27 33 63 76 80 95 27 30 143 165 208 240 124 146 181 210 185 210 3 0 26 -74
50 -165 46 -174 60 -198 117 -214 16 -4 43 -4 59 0 17 5 42 11 58 14 15 3 39
7 55 10 15 3 43 10 62 15 19 5 46 11 60 14 22 4 90 18 146 31 l21 5 -1 927 -1
928 -23 45 c-29 60 -81 112 -140 141 l-47 24 -1845 1 c-1015 0 -1856 -2 -1870
-6z"/>
<path d="M6 665 c1 -268 6 -442 12 -462 23 -70 89 -143 162 -176 44 -20 61
-20 908 -21 474 -1 863 1 863 4 1 3 2 184 3 402 0 218 4 399 8 403 5 5 111 8
214 5 21 0 21 -1 22 -392 0 -216 1 -400 1 -408 1 -13 102 -15 864 -15 l862 0
57 28 c68 33 121 91 146 160 17 45 19 85 18 476 l-1 426 -2070 0 -2070 0 1
-430z"/>
</g>
</svg>
